<svg width="20" height="20" viewBox="0 0 20 20" fill="none" xmlns="http://www.w3.org/2000/svg">
<path d="M10 2.5752C5.90576 2.5752 2.57495 5.90686 2.57495 10.002C2.57495 14.097 5.90576 17.4287 10 17.4287C14.0942 17.4287 17.425 14.097 17.425 10.002C17.425 5.90686 14.0942 2.5752 10 2.5752ZM10.325 14.4989V15.267H9.57495V14.473C8.23758 14.2715 7.21497 13.239 7.21497 11.9961H7.96497C7.96497 12.9694 8.90039 13.7612 10.05 13.7612C11.1997 13.7612 12.135 12.9694 12.135 11.9961C12.135 11.0228 11.1997 10.2311 10.05 10.2311H9.94995C8.38672 10.2311 7.11499 9.10291 7.11499 7.71606C7.11499 6.44228 8.18878 5.38931 9.57495 5.22568V4.44519H10.325V5.22568C11.7112 5.3893 12.785 6.44228 12.785 7.71606H12.035C12.035 6.7428 11.0996 5.95105 9.94995 5.95105C8.80029 5.95105 7.86499 6.7428 7.86499 7.71606C7.86499 8.68933 8.80029 9.48108 9.94995 9.48108H10.05C11.6133 9.48108 12.885 10.6093 12.885 11.9961C12.885 13.3006 11.7596 14.3758 10.325 14.4989Z" fill="#F6CA58"/>
<path d="M10 0C4.48596 0 0 4.48608 0 10C0 15.5139 4.48596 20 10 20C15.514 20 20 15.5139 20 10C20 4.48608 15.514 0 10 0ZM10 18.179C5.49231 18.179 1.82495 14.5109 1.82495 10.0022C1.82495 5.49353 5.49231 1.82544 10 1.82544C14.5077 1.82544 18.175 5.49353 18.175 10.0022C18.175 14.5109 14.5077 18.179 10 18.179Z" fill="#F6CA58"/>
</svg>
