<svg width="14" height="19" viewBox="0 0 14 19" fill="none" xmlns="http://www.w3.org/2000/svg">
<path d="M12.2156 4.18143e-06H1.53443C1.33279 -0.000467077 1.13305 0.0389002 0.946672 0.115845C0.760295 0.19279 0.590954 0.305797 0.448376 0.448376C0.305797 0.590954 0.19279 0.760295 0.115845 0.946672C0.0389002 1.13305 -0.000467077 1.33279 4.18143e-06 1.53443V16.6727C0.000297772 16.7749 0.0408784 16.8727 0.112927 16.9451L1.44808 18.2736C1.48355 18.3099 1.52592 18.3387 1.57269 18.3584C1.61945 18.378 1.66968 18.3882 1.72042 18.3882C1.77116 18.3882 1.82138 18.378 1.86815 18.3584C1.91492 18.3387 1.95728 18.3099 1.99276 18.2736L3.16185 17.1045C3.23344 17.0318 3.33082 16.9904 3.43282 16.9891C3.53482 16.9879 3.63319 17.027 3.70653 17.0979L4.8889 18.2736C4.92438 18.3099 4.96675 18.3387 5.01352 18.3584C5.06028 18.378 5.11051 18.3882 5.16125 18.3882C5.21199 18.3882 5.26221 18.378 5.30898 18.3584C5.35575 18.3387 5.39811 18.3099 5.43359 18.2736L6.60268 17.1045C6.63815 17.0682 6.68051 17.0394 6.72728 17.0197C6.77404 17.0001 6.82427 16.9899 6.875 16.9899C6.92573 16.9899 6.97596 17.0001 7.02272 17.0197C7.06949 17.0394 7.11185 17.0682 7.14732 17.1045L8.31641 18.2736C8.35189 18.3099 8.39425 18.3387 8.44102 18.3584C8.48779 18.378 8.53801 18.3882 8.58875 18.3882C8.63949 18.3882 8.68972 18.378 8.73648 18.3584C8.78325 18.3387 8.82562 18.3099 8.8611 18.2736L10.0435 17.0979C10.1168 17.027 10.2152 16.9879 10.3172 16.9891C10.4192 16.9904 10.5166 17.0318 10.5882 17.1045L11.7572 18.2736C11.7927 18.3099 11.8351 18.3387 11.8819 18.3584C11.9286 18.378 11.9788 18.3882 12.0296 18.3882C12.0803 18.3882 12.1305 18.378 12.1773 18.3584C12.2241 18.3387 12.2664 18.3099 12.3019 18.2736L13.6371 16.9451C13.7091 16.8727 13.7497 16.7749 13.75 16.6727V1.53443C13.7505 1.3328 13.7111 1.13306 13.6342 0.946682C13.5572 0.760307 13.4442 0.590968 13.3016 0.44839C13.1591 0.305812 12.9897 0.192804 12.8034 0.115857C12.617 0.0389094 12.4172 -0.00046182 12.2156 4.18143e-06ZM6.85509 6.80195C6.44368 6.79323 6.04781 6.64314 5.73403 6.37691C5.42025 6.11067 5.2077 5.74453 5.1321 5.34003C5.0565 4.93553 5.12246 4.51733 5.3189 4.15574C5.51534 3.79414 5.83027 3.5112 6.21077 3.35448C6.03645 2.19582 7.59275 2.07945 7.53927 3.22827H7.99761C8.17215 3.23074 8.33871 3.30181 8.46127 3.42611C8.58383 3.55042 8.65253 3.71796 8.65253 3.89253C8.65253 4.06709 8.58383 4.23463 8.46127 4.35894C8.33871 4.48324 8.17215 4.55431 7.99761 4.55678H6.87502C6.81442 4.55747 6.75455 4.57017 6.69889 4.59414C6.64323 4.61811 6.59287 4.65288 6.55073 4.69644C6.50859 4.74 6.47551 4.79148 6.45339 4.84791C6.43127 4.90434 6.42056 4.96459 6.42188 5.02518C6.4232 5.08577 6.43652 5.1455 6.46106 5.20091C6.48561 5.25633 6.5209 5.30632 6.56489 5.34801C6.60889 5.38969 6.66071 5.42224 6.71736 5.44377C6.77401 5.46531 6.83437 5.47539 6.89495 5.47345C7.3067 5.48308 7.70262 5.63397 8.01633 5.90084C8.33004 6.1677 8.54247 6.53431 8.61799 6.93919C8.69352 7.34406 8.62755 7.7626 8.43115 8.12462C8.23475 8.48664 7.91986 8.77013 7.53927 8.92756C7.71249 10.0855 6.15407 10.2023 6.21077 9.04713H5.75243C5.57626 9.04713 5.40731 8.97714 5.28274 8.85257C5.15816 8.728 5.08818 8.55904 5.08818 8.38287C5.08818 8.2067 5.15816 8.03775 5.28274 7.91318C5.40731 7.7886 5.57626 7.71862 5.75243 7.71862H6.87502C6.93549 7.71773 6.99518 7.70489 7.05067 7.68082C7.10615 7.65676 7.15633 7.62196 7.1983 7.57843C7.24028 7.53489 7.27323 7.48348 7.29525 7.42716C7.31727 7.37084 7.32793 7.31071 7.32662 7.25025C7.3253 7.18979 7.31204 7.13019 7.28759 7.07487C7.26314 7.01956 7.22799 6.96963 7.18416 6.92796C7.14033 6.88629 7.08869 6.85371 7.03222 6.83208C6.97574 6.81045 6.91554 6.80021 6.85509 6.80195ZM8.9807 14.7464H4.76934C4.59487 14.7438 4.42843 14.6727 4.30597 14.5484C4.18351 14.4241 4.11487 14.2566 4.11487 14.0822C4.11487 13.9077 4.18351 13.7402 4.30597 13.6159C4.42843 13.4916 4.59487 13.4205 4.76934 13.4179H8.9807C9.15517 13.4205 9.32161 13.4916 9.44407 13.6159C9.56653 13.7402 9.63517 13.9077 9.63517 14.0822C9.63517 14.2566 9.56653 14.4241 9.44407 14.5484C9.32161 14.6727 9.15517 14.7438 8.9807 14.7464ZM10.7742 12.302H2.97586C2.80139 12.2994 2.63495 12.2283 2.51249 12.104C2.39003 11.9797 2.32138 11.8122 2.32138 11.6377C2.32138 11.4632 2.39003 11.2957 2.51249 11.1715C2.63495 11.0472 2.80139 10.976 2.97586 10.9735H10.7742C10.9486 10.9762 11.1149 11.0473 11.2373 11.1716C11.3596 11.2959 11.4282 11.4633 11.4282 11.6377C11.4282 11.8121 11.3596 11.9795 11.2373 12.1038C11.1149 12.2281 10.9486 12.2993 10.7742 12.302Z" fill="#F6CA58"/>
</svg>
