<svg width="320" height="320" viewBox="0 0 320 320" fill="none" xmlns="http://www.w3.org/2000/svg">
<path d="M124.16 305.389C123.06 305.399 121.975 305.126 121.011 304.595L96.2881 290.323C95.6322 289.993 95.0809 289.488 94.6957 288.863C94.3104 288.238 94.1064 287.518 94.1064 286.784C94.1064 286.05 94.3104 285.33 94.6957 284.705C95.0809 284.08 95.6322 283.575 96.2881 283.245L124.115 267.181C125.082 266.656 126.164 266.381 127.264 266.381C128.364 266.381 129.446 266.656 130.413 267.181L155.13 281.446C155.784 281.778 156.333 282.284 156.717 282.909C157.1 283.533 157.303 284.252 157.303 284.985C157.303 285.719 157.1 286.437 156.717 287.062C156.333 287.687 155.784 288.193 155.13 288.525L127.302 304.595C126.34 305.125 125.258 305.398 124.16 305.389Z" fill="#E0E0E0"/>
<path d="M220.096 298.759C237.158 308.602 264.813 308.602 281.869 298.759C298.925 288.915 298.931 272.941 281.869 263.091C264.806 253.242 237.152 253.242 220.096 263.091C203.04 272.941 203.04 288.909 220.096 298.759Z" fill="#E0E0E0"/>
<path opacity="0.1" d="M163.399 25.331C163.399 25.235 163.399 25.139 163.354 25.0494C163.309 24.9598 163.354 24.9214 163.309 24.8574C163.311 24.8425 163.311 24.8274 163.309 24.8126C163.298 24.7687 163.283 24.7258 163.264 24.6846C163.268 24.6613 163.268 24.6375 163.264 24.6142C163.247 24.5656 163.225 24.5185 163.2 24.4734C163.153 24.3721 163.093 24.2774 163.021 24.1918C162.995 24.1548 162.965 24.1205 162.931 24.0894C162.902 24.0525 162.868 24.0202 162.829 23.9934C162.775 23.9478 162.717 23.9071 162.656 23.8718L162.554 23.8142C162.246 23.6983 161.915 23.6599 161.589 23.7023C161.263 23.7447 160.953 23.8667 160.685 24.0574L64.973 79.2446C64.147 79.7584 63.4679 80.4771 63.0018 81.331C62.9312 81.4457 62.8691 81.5655 62.8162 81.6894C62.765 81.7854 62.7202 81.8814 62.6754 81.9774C62.6177 82.0983 62.5664 82.2222 62.5218 82.3486C62.4706 82.4766 62.4322 82.6046 62.3938 82.7326C62.3554 82.8606 62.3426 82.9182 62.3234 83.0142C62.3177 83.0351 62.3177 83.0572 62.3234 83.0782C62.3234 83.1614 62.285 83.2446 62.2722 83.3278C62.2691 83.3832 62.2691 83.4388 62.2722 83.4942C62.2722 83.571 62.2722 83.6414 62.2722 83.7182C62.266 83.8376 62.266 83.9572 62.2722 84.0766V252.397C62.2722 252.499 62.2722 252.589 62.2722 252.685C62.2722 252.781 62.2722 252.851 62.2722 252.934C62.2846 253.023 62.3039 253.111 62.3298 253.197L62.3682 253.325C62.3857 253.381 62.4071 253.437 62.4322 253.491C62.5096 253.676 62.6227 253.843 62.765 253.984L62.8674 254.086L62.9378 254.131L63.0402 254.189C63.1536 254.25 63.2739 254.297 63.3986 254.329H63.5458H63.7314C64.1846 254.317 64.6263 254.184 65.0114 253.945L160.64 198.822C161.453 198.293 162.129 197.58 162.614 196.74C163.098 195.9 163.378 194.958 163.431 193.99V25.6702C163.411 25.5422 163.405 25.4334 163.399 25.331Z" fill="black"/>
<path d="M169.402 28.7481C169.402 28.6521 169.402 28.5561 169.357 28.4665C169.312 28.3769 169.357 28.3385 169.312 28.2745C169.314 28.2597 169.314 28.2446 169.312 28.2297C169.301 28.1858 169.286 28.143 169.268 28.1017C169.271 28.0784 169.271 28.0547 169.268 28.0313C169.25 27.9827 169.229 27.9356 169.204 27.8905C169.156 27.7892 169.096 27.6946 169.024 27.6089C168.998 27.5719 168.968 27.5376 168.935 27.5065C168.905 27.4697 168.871 27.4373 168.832 27.4105C168.778 27.3649 168.721 27.3242 168.66 27.2889L168.557 27.2313C167.962 26.8793 166.464 26.0153 166.029 25.7657C165.716 25.6202 165.369 25.5618 165.026 25.5968C164.682 25.6317 164.355 25.7586 164.077 25.9641L68.3651 81.1513C67.5387 81.6667 66.8579 82.385 66.3875 83.2377C66.2593 83.4537 66.1459 83.6783 66.0483 83.9097C65.9523 84.1401 65.8627 84.3705 65.7923 84.6009L65.6963 84.9529C65.6188 85.291 65.578 85.6365 65.5747 85.9833V254.303C65.5747 254.387 65.5747 254.47 65.5747 254.547C65.5747 254.623 65.5747 254.7 65.5747 254.771L65.6131 254.982C65.6234 255.049 65.6405 255.116 65.6643 255.18C65.7166 255.339 65.7875 255.492 65.8755 255.635C65.9593 255.767 66.0654 255.884 66.1891 255.98C66.2404 256.024 66.2962 256.063 66.3555 256.095L66.8355 256.37L67.6803 256.863L68.5507 257.363L68.7939 257.503L68.8643 257.548L68.9667 257.606C69.0801 257.667 69.2004 257.714 69.3251 257.747H69.4723H69.6579C70.111 257.734 70.5528 257.602 70.9379 257.363L166.624 202.239C167.437 201.71 168.113 200.997 168.598 200.157C169.083 199.318 169.362 198.375 169.415 197.407V29.0873C169.415 28.9593 169.408 28.8505 169.402 28.7481ZM83.5011 85.3369C83.4976 85.2708 83.4976 85.2046 83.5011 85.1385C83.5011 85.0553 83.5011 84.9721 83.5011 84.8825C83.5529 83.9003 83.8361 82.9441 84.3277 82.0921C84.8193 81.2402 85.5054 80.5165 86.3299 79.9801L86.5283 79.8777C86.6809 79.8032 86.8393 79.7411 87.0019 79.6921H87.0915C87.163 79.9593 87.1996 80.2347 87.2003 80.5113C87.1461 81.4921 86.8617 82.4464 86.3703 83.297C85.8789 84.1475 85.1941 84.8705 84.3715 85.4073C84.1305 85.547 83.8723 85.6545 83.6035 85.7273C83.5573 85.6007 83.523 85.47 83.5011 85.3369ZM147.245 48.0633C147.297 47.0819 147.58 46.1265 148.07 45.2747C148.561 44.4229 149.245 43.6988 150.067 43.1609C150.148 43.1132 150.231 43.0705 150.317 43.0329L150.458 42.9689L150.65 42.8985L150.836 42.8537C150.905 43.1168 150.939 43.388 150.938 43.6601C150.886 44.6424 150.603 45.5985 150.111 46.4505C149.62 47.3025 148.934 48.0262 148.109 48.5625C147.872 48.7042 147.616 48.8099 147.348 48.8761C147.278 48.6108 147.244 48.3376 147.245 48.0633Z" fill="#37474F"/>
<path d="M68.1856 87.4997V255.82C68.1593 256.132 68.2031 256.447 68.3138 256.74C68.4245 257.034 68.5994 257.299 68.8256 257.516L66.3744 256.101C66.0877 255.904 65.86 255.632 65.7157 255.316C65.5714 254.999 65.5159 254.649 65.5552 254.303V85.9829C65.5896 85.0128 65.8716 84.0676 66.3744 83.2373L68.992 84.7477C68.4911 85.5804 68.2134 86.5283 68.1856 87.4997Z" fill="#263238"/>
<path d="M169.402 28.748C169.402 28.652 169.402 28.556 169.357 28.4664C169.312 28.3768 169.357 28.3384 169.312 28.2744C169.314 28.2595 169.314 28.2444 169.312 28.2296C169.301 28.1857 169.286 28.1428 169.267 28.1016C169.271 28.0782 169.271 28.0545 169.267 28.0312C169.25 27.9826 169.228 27.9355 169.203 27.8904C169.156 27.7891 169.096 27.6944 169.024 27.6088C168.998 27.5718 168.968 27.5375 168.934 27.5064C168.905 27.4695 168.871 27.4372 168.832 27.4104C168.778 27.3648 168.72 27.3241 168.659 27.2888L168.557 27.2312C168.249 27.1153 167.918 27.0769 167.592 27.1193C167.266 27.1617 166.956 27.2836 166.688 27.4744L70.976 82.6616C70.1499 83.1754 69.4708 83.8941 69.0048 84.748C68.9341 84.8627 68.8721 84.9825 68.8192 85.1064C68.768 85.2024 68.7232 85.2984 68.6784 85.3944C68.6206 85.5153 68.5693 85.6392 68.5248 85.7656C68.4736 85.8936 68.4352 86.0216 68.3968 86.1496C68.3584 86.2776 68.3456 86.3352 68.3264 86.4312C68.3206 86.4521 68.3206 86.4742 68.3264 86.4952C68.3264 86.5784 68.288 86.6616 68.2752 86.7448C68.2721 86.8002 68.2721 86.8558 68.2752 86.9112C68.2752 86.988 68.2752 87.0584 68.2752 87.1352C68.269 87.2546 68.269 87.3742 68.2752 87.4936V255.814C68.2752 255.916 68.2752 256.006 68.2752 256.102C68.2752 256.198 68.2752 256.268 68.2752 256.351C68.2875 256.44 68.3068 256.528 68.3328 256.614L68.3712 256.742C68.3886 256.798 68.41 256.854 68.4352 256.908C68.5125 257.093 68.6256 257.26 68.768 257.401L68.8704 257.503L68.9408 257.548L69.0432 257.606C69.1565 257.667 69.2769 257.714 69.4016 257.746H69.5488H69.7344C70.1875 257.734 70.6292 257.601 71.0144 257.362L166.624 202.239C167.436 201.71 168.112 200.997 168.597 200.157C169.082 199.317 169.362 198.375 169.414 197.407V29.0872C169.414 28.9592 169.408 28.8504 169.402 28.748ZM83.5008 85.3368C83.4972 85.2707 83.4972 85.2045 83.5008 85.1384C83.5008 85.0552 83.5008 84.972 83.5008 84.8824C83.5525 83.9001 83.8357 82.944 84.3273 82.092C84.819 81.24 85.505 80.5163 86.3296 79.98L86.528 79.8776C86.6805 79.803 86.8389 79.7409 87.0016 79.692H87.0912C87.1627 79.9592 87.1992 80.2346 87.2 80.5112C87.1457 81.492 86.8614 82.4463 86.3699 83.2968C85.8785 84.1474 85.1938 84.8703 84.3712 85.4072C84.1302 85.5468 83.872 85.6544 83.6032 85.7272C83.5569 85.6005 83.5226 85.4698 83.5008 85.3368ZM147.245 48.0632C147.297 47.0817 147.579 46.1263 148.07 45.2746C148.56 44.4228 149.245 43.6986 150.067 43.1608C150.148 43.1131 150.231 43.0703 150.317 43.0328L150.458 42.9688L150.65 42.8984L150.835 42.8536C150.905 43.1167 150.939 43.3878 150.938 43.66C150.886 44.6423 150.603 45.5984 150.111 46.4504C149.619 47.3023 148.933 48.026 148.109 48.5624C147.872 48.7041 147.615 48.8098 147.347 48.876C147.278 48.6107 147.243 48.3374 147.245 48.0632Z" fill="#455A64"/>
<path d="M69.8179 225.126L167.783 168.569V51.0908L69.8179 107.648V225.126Z" fill="white"/>
<path d="M86.4961 79.8786C86.6474 79.8009 86.8061 79.7385 86.9697 79.6924C86.8071 79.7415 86.6487 79.8038 86.4961 79.8786Z" fill="#263238"/>
<path d="M89.1265 81.6181C89.0722 82.5989 88.7879 83.5532 88.2965 84.4038C87.805 85.2543 87.1203 85.9772 86.2977 86.5141C85.0177 87.2629 83.9041 86.8853 83.5713 85.7013C83.8401 85.6285 84.0983 85.5209 84.3393 85.3813C85.1619 84.8444 85.8466 84.1215 86.3381 83.2709C86.8295 82.4204 87.1138 81.4661 87.1681 80.4853C87.1674 80.2087 87.1308 79.9333 87.0593 79.6661H86.9697C88.2049 79.3589 89.1265 80.0821 89.1265 81.6181Z" fill="#263238"/>
<path d="M152.896 44.7996C152.844 45.7818 152.561 46.738 152.069 47.5899C151.578 48.4419 150.892 49.1656 150.067 49.702C148.787 50.4508 147.68 50.0668 147.347 48.8828C147.615 48.8166 147.872 48.7109 148.109 48.5692C148.933 48.0328 149.619 47.3091 150.111 46.4571C150.603 45.6052 150.886 44.649 150.938 43.6668C150.939 43.3946 150.905 43.1235 150.835 42.8604C152.026 42.5532 152.896 43.2956 152.896 44.7996Z" fill="#263238"/>
<path d="M82.7972 135.04C82.7059 135.041 82.6153 135.024 82.5307 134.989C82.4461 134.955 82.3692 134.904 82.3043 134.84C82.2395 134.776 82.188 134.699 82.1528 134.615C82.1177 134.531 82.0996 134.44 82.0996 134.349V110.919C82.0997 110.796 82.1324 110.676 82.1942 110.57C82.2561 110.464 82.3449 110.377 82.4516 110.317L100.052 100.154C100.131 100.108 100.218 100.079 100.308 100.067C100.399 100.056 100.49 100.062 100.578 100.086C100.666 100.109 100.749 100.15 100.821 100.206C100.893 100.261 100.953 100.331 100.999 100.41C101.044 100.489 101.074 100.576 101.085 100.666C101.097 100.757 101.091 100.848 101.067 100.936C101.043 101.024 101.002 101.107 100.947 101.179C100.891 101.251 100.822 101.312 100.743 101.357L83.4628 111.315V134.355C83.4613 134.533 83.3913 134.704 83.2673 134.831C83.1433 134.959 82.9749 135.034 82.7972 135.04Z" fill="#F6CA58"/>
<path d="M82.7972 207.532C82.6752 207.534 82.5553 207.5 82.4516 207.436C82.3449 207.376 82.2561 207.289 82.1942 207.183C82.1324 207.077 82.0997 206.957 82.0996 206.835V183.417C82.1162 183.244 82.1965 183.084 82.3249 182.967C82.4533 182.851 82.6206 182.786 82.794 182.786C82.9675 182.786 83.1347 182.851 83.2631 182.967C83.3915 183.084 83.4718 183.244 83.4884 183.417V205.631L100.052 196.076C100.13 196.03 100.217 196 100.307 195.988C100.397 195.975 100.489 195.981 100.577 196.004C100.665 196.027 100.748 196.068 100.82 196.123C100.892 196.178 100.953 196.247 100.999 196.326C101.045 196.405 101.074 196.493 101.086 196.584C101.098 196.675 101.092 196.767 101.069 196.856C101.045 196.944 101.004 197.027 100.948 197.1C100.892 197.173 100.822 197.234 100.743 197.279L83.1428 207.436C83.0391 207.5 82.9192 207.534 82.7972 207.532Z" fill="#F6CA58"/>
<path d="M154.804 93.4396C154.62 93.4396 154.444 93.3668 154.315 93.2372C154.185 93.1075 154.112 92.9317 154.112 92.7484V70.5468L137.556 80.102C137.396 80.1937 137.207 80.2182 137.029 80.1702C136.851 80.1222 136.7 80.0056 136.608 79.846C136.517 79.6865 136.492 79.497 136.54 79.3194C136.588 79.1418 136.705 78.9905 136.864 78.8988L154.458 68.742C154.563 68.682 154.682 68.6504 154.804 68.6504C154.925 68.6504 155.044 68.682 155.149 68.742C155.256 68.8021 155.345 68.8895 155.407 68.9952C155.468 69.1009 155.501 69.2211 155.501 69.3436V92.7612C155.498 92.9434 155.423 93.1169 155.292 93.244C155.161 93.371 154.986 93.4413 154.804 93.4396Z" fill="#F6CA58"/>
<path d="M137.21 176.115C137.088 176.117 136.968 176.085 136.862 176.024C136.756 175.964 136.669 175.876 136.608 175.77C136.563 175.691 136.533 175.604 136.521 175.513C136.509 175.423 136.515 175.331 136.539 175.243C136.563 175.155 136.604 175.072 136.66 175C136.715 174.928 136.785 174.868 136.864 174.823L154.144 164.864V141.824C154.161 141.652 154.241 141.491 154.37 141.375C154.498 141.258 154.665 141.193 154.839 141.193C155.012 141.193 155.179 141.258 155.308 141.375C155.436 141.491 155.517 141.652 155.533 141.824V165.242C155.533 165.364 155.5 165.485 155.438 165.59C155.377 165.696 155.288 165.783 155.181 165.843L137.555 176C137.452 176.066 137.333 176.106 137.21 176.115Z" fill="#F6CA58"/>
<path d="M144 150.694L148.724 147.968V135.283C148.679 135.283 148.653 135.283 148.634 135.283L144.212 137.843C143.988 137.971 143.975 138.157 143.975 138.381C143.975 140.237 143.975 142.093 143.975 143.955C143.975 144.256 144.045 144.326 144.276 144.185C144.845 143.833 145.421 143.545 145.997 143.181C146.26 143.014 146.375 143.04 146.368 143.43C146.368 144.205 146.368 144.966 146.368 145.721C146.388 145.851 146.366 145.984 146.303 146.099C146.241 146.215 146.142 146.307 146.023 146.361C145.434 146.681 144.852 147.04 144.263 147.366C144.163 147.414 144.081 147.493 144.029 147.591C143.977 147.689 143.958 147.801 143.975 147.91C143.975 148.838 143.975 149.766 143.975 150.694L141.581 152.077V136.147C140.941 136.512 140.365 136.857 139.783 137.184C139.079 137.587 139.181 137.664 139.143 136.723C139.143 135.949 139.143 135.174 139.143 134.361L136.749 135.744V132.544C136.109 132.87 135.469 133.261 134.829 133.625C134.362 133.894 134.362 133.894 134.362 133.293V131.373C134.362 130.733 134.362 130.733 134.868 130.425L136.736 129.344V126.144C136.039 126.553 135.373 126.918 134.682 127.334C134.439 127.488 134.356 127.424 134.362 127.091C134.362 126.381 134.362 125.683 134.362 124.985C134.362 124.288 134.362 124.345 134.868 124.045L136.756 122.95C136.756 121.965 136.756 121.03 136.756 120.128C136.756 119.776 136.653 119.769 136.423 119.91C135.84 120.269 135.252 120.55 134.669 120.934C134.42 121.088 134.349 121.011 134.356 120.685C134.356 119.897 134.356 119.129 134.356 118.336C134.356 118.003 134.272 117.958 134.029 118.105C133.447 118.464 132.858 118.803 132.276 119.117C132.159 119.173 132.065 119.266 132.008 119.382C131.951 119.498 131.935 119.63 131.962 119.757C131.962 120.544 131.962 121.35 131.962 122.144C131.979 122.244 131.965 122.348 131.92 122.44C131.875 122.532 131.802 122.607 131.712 122.656C131.002 123.053 130.292 123.462 129.581 123.865C129.581 118.861 129.581 113.856 129.581 108.851C129.581 107.949 129.581 107.949 128.89 108.345L127.213 109.312V106.112C127.917 105.709 128.589 105.305 129.268 104.934C129.384 104.877 129.478 104.784 129.536 104.668C129.594 104.553 129.612 104.421 129.588 104.294C129.588 102.457 129.588 100.621 129.588 98.7709C129.588 98.4253 129.511 98.3421 129.248 98.5021C128.711 98.8349 128.173 99.1037 127.636 99.4493C127.296 99.6669 127.168 99.6349 127.175 99.1293C127.175 97.3693 127.175 95.6349 127.175 93.8749C127.175 93.4589 127.104 93.3501 126.772 93.5485C124.638 94.7944 122.505 96.0253 120.372 97.2413C120.224 97.3073 120.103 97.4207 120.028 97.5633C119.953 97.706 119.927 97.8697 119.956 98.0285C119.956 99.7821 119.956 101.555 119.956 103.309C119.984 103.469 119.958 103.634 119.881 103.778C119.805 103.922 119.682 104.036 119.533 104.102C118.983 104.39 118.432 104.742 117.882 105.049C117.639 105.197 117.549 105.139 117.556 104.806C117.556 104.051 117.556 103.315 117.556 102.553C117.556 102.176 117.485 102.061 117.184 102.253C116.621 102.605 116.058 102.925 115.501 103.225C115.381 103.279 115.282 103.371 115.219 103.486C115.157 103.602 115.134 103.735 115.156 103.865C115.156 104.633 115.156 105.421 115.156 106.208C115.139 106.387 115.072 106.557 114.964 106.701C114.24 107.142 113.517 107.552 112.756 107.981V101.619C111.988 102.061 111.264 102.47 110.541 102.899C110.445 103.031 110.386 103.185 110.368 103.347C110.368 104.153 110.368 104.953 110.368 105.741C110.394 105.868 110.376 106.001 110.317 106.118C110.258 106.234 110.161 106.327 110.042 106.381C109.46 106.707 108.871 107.065 108.288 107.385C108.171 107.441 108.075 107.534 108.016 107.65C107.957 107.766 107.938 107.898 107.962 108.025C107.962 108.723 107.962 109.427 107.962 110.131C107.962 110.835 107.962 110.771 108.468 110.489C109.748 109.734 111.085 108.973 112.397 108.23C112.512 108.166 112.724 108.185 112.724 108.269C112.724 109.216 112.724 110.189 112.724 111.206C112.013 111.609 111.348 112.013 110.688 112.371C110.561 112.431 110.457 112.531 110.392 112.656C110.327 112.781 110.305 112.924 110.33 113.062C110.33 113.971 110.33 114.893 110.33 115.808L112.711 114.451V117.651L110.413 119.04V122.24C111.098 121.849 111.783 121.465 112.468 121.056C112.724 120.902 112.813 120.941 112.807 121.299C112.807 122.227 112.807 123.129 112.807 124.045L115.29 122.656C115.29 123.718 115.188 124.8 115.252 125.824C116.73 124.973 118.17 124.128 119.642 123.302C119.757 123.232 119.975 123.257 119.981 123.341C119.981 124.288 119.981 125.261 119.981 126.278C117.696 127.603 115.424 128.902 113.146 130.233C113.012 130.31 112.8 130.329 112.8 130.662C112.8 131.629 112.8 132.582 112.8 133.613C113.504 133.203 114.17 132.838 114.829 132.429C115.117 132.256 115.226 132.301 115.213 132.704C115.213 133.465 115.213 134.195 115.213 134.957C115.213 135.366 115.309 135.398 115.597 135.232C116.941 134.438 118.285 133.677 119.629 132.889C119.898 132.729 120.007 132.761 120 133.152C120 133.907 120 134.656 120 135.392C120.023 135.533 119.999 135.677 119.93 135.802C119.862 135.928 119.754 136.026 119.623 136.083C119.053 136.397 118.477 136.755 117.908 137.069C117.802 137.119 117.715 137.202 117.659 137.306C117.604 137.41 117.583 137.528 117.6 137.645C117.6 138.374 117.6 139.123 117.6 139.84C117.635 140.008 117.611 140.184 117.533 140.337C117.455 140.49 117.328 140.613 117.172 140.685C116.634 140.96 116.096 141.325 115.559 141.6C115.432 141.659 115.329 141.758 115.264 141.882C115.2 142.006 115.177 142.147 115.2 142.285C115.2 144.281 115.2 146.214 115.2 148.243L112.807 149.625C112.807 150.541 112.807 151.456 112.807 152.377C112.807 152.71 112.89 152.761 113.133 152.614C113.805 152.211 114.484 151.827 115.194 151.417C115.29 153.337 115.194 155.36 115.232 157.305C115.255 157.443 115.233 157.584 115.168 157.708C115.103 157.832 115 157.931 114.874 157.99C114.189 158.368 113.498 158.777 112.813 159.181C112.813 160.077 112.813 160.985 112.813 161.875C112.839 162.018 112.815 162.166 112.745 162.295C112.675 162.423 112.564 162.523 112.429 162.579C111.904 162.861 111.38 163.219 110.855 163.475C110.477 163.654 110.4 163.885 110.413 164.339C110.413 165.177 110.413 166.041 110.413 166.899C111.104 166.515 111.789 166.15 112.474 165.741C112.756 165.568 112.826 165.651 112.826 166.016C112.826 167.814 112.826 169.613 112.826 171.398C112.856 171.556 112.832 171.72 112.759 171.864C112.686 172.007 112.568 172.122 112.423 172.192C110.951 173.037 109.504 173.824 108.039 174.752C108.039 175.68 108.039 176.563 108.039 177.453C108.039 177.805 108.116 177.881 108.378 177.721C108.948 177.369 109.524 177.081 110.1 176.717C110.349 176.563 110.452 176.601 110.445 176.966C110.445 177.741 110.445 178.502 110.445 179.257C110.459 179.386 110.434 179.517 110.372 179.631C110.31 179.746 110.215 179.838 110.1 179.897C109.517 180.217 108.928 180.537 108.346 180.915C108.211 181.025 108.112 181.172 108.058 181.337C108.058 182.297 108.058 183.257 108.058 184.224L112.839 181.465C112.839 180.55 112.839 179.673 112.839 178.809C112.812 178.671 112.832 178.527 112.896 178.401C112.96 178.274 113.063 178.173 113.191 178.112C113.773 177.798 114.362 177.472 114.944 177.101C115.194 176.947 115.271 177.024 115.264 177.35C115.264 178.137 115.264 178.905 115.264 179.693C115.264 179.981 115.309 180.096 115.552 179.949C116.96 179.123 118.362 178.317 119.764 177.517C119.863 177.466 119.943 177.386 119.994 177.287C120.045 177.188 120.062 177.076 120.045 176.966C120.045 176.192 120.045 175.398 120.045 174.63C120.03 174.502 120.055 174.372 120.115 174.258C120.176 174.143 120.27 174.05 120.384 173.99C120.96 173.677 121.53 173.35 122.106 172.998C122.375 172.832 122.445 172.947 122.439 173.28C122.439 174.003 122.439 174.707 122.439 175.437C122.439 175.91 122.535 175.955 122.874 175.763C125.133 174.413 127.386 173.203 129.645 171.808C129.645 168.813 129.645 165.83 129.645 162.848C129.645 162.438 129.709 162.208 130.048 162.054C130.586 161.779 131.124 161.414 131.661 161.139C131.798 161.082 131.912 160.98 131.982 160.849C132.052 160.719 132.074 160.568 132.045 160.422C132.045 159.654 132.045 158.861 132.045 158.086C132.028 157.971 132.047 157.853 132.101 157.749C132.156 157.645 132.241 157.562 132.346 157.51C132.948 157.184 133.543 156.838 134.138 156.48C134.375 156.333 134.439 156.422 134.439 156.717C134.439 157.536 134.439 158.336 134.439 159.155C134.439 159.443 134.516 159.501 134.72 159.373C135.437 158.95 136.109 158.573 136.832 158.15C136.832 160.237 136.832 162.233 136.832 164.224C136.84 164.319 136.817 164.414 136.768 164.495C136.719 164.577 136.645 164.641 136.557 164.678C135.949 165.03 135.341 165.369 134.733 165.734C134.496 165.875 134.426 165.798 134.432 165.497C134.432 164.71 134.432 163.942 134.432 163.155C134.432 162.841 134.381 162.726 134.119 162.886C133.536 163.245 132.954 163.584 132.365 163.904C132.252 163.965 132.159 164.058 132.1 164.172C132.041 164.287 132.017 164.416 132.032 164.544C132.032 165.254 132.032 165.965 132.032 166.701C132.032 167.155 132.122 167.245 132.461 167.033C133.101 166.624 133.741 166.278 134.426 165.888V168.96L136.82 167.577C136.82 166.771 136.82 166.009 136.82 165.241C136.82 164.345 136.717 164.493 137.408 164.096C138.688 163.353 139.968 162.605 141.248 161.888C141.389 161.822 141.503 161.712 141.574 161.574C141.645 161.436 141.667 161.278 141.639 161.126C141.543 157.6 142.157 158.374 139.514 159.686C139.412 159.737 139.232 159.686 139.232 159.584C139.232 158.649 139.232 157.696 139.232 156.71C140.679 155.808 142.1 155.046 143.546 154.189C144.032 153.907 144.032 153.907 144.032 153.235C143.949 152.384 143.93 151.59 144 150.694ZM112.839 114.451V111.251C113.639 110.797 114.4 110.31 115.194 109.83C115.194 108.909 115.252 107.968 115.252 107.053C115.233 106.943 115.249 106.831 115.299 106.732C115.348 106.633 115.428 106.552 115.527 106.502C116.167 106.163 116.749 105.811 117.357 105.453C117.575 105.325 117.639 105.401 117.639 105.677C117.639 108.612 117.639 111.547 117.639 114.483C117.654 114.6 117.633 114.719 117.578 114.823C117.523 114.927 117.437 115.012 117.332 115.065C116.743 115.385 116.16 115.705 115.572 116.077C115.328 116.224 115.239 116.173 115.245 115.84C115.245 114.905 115.245 114.016 115.245 113.094L112.839 114.451ZM117.274 121.453C116.634 121.811 115.994 122.208 115.322 122.592C115.269 122.479 115.228 122.361 115.2 122.24C115.2 121.433 115.2 120.621 115.2 119.821C115.181 119.705 115.199 119.586 115.252 119.481C115.305 119.376 115.39 119.291 115.495 119.238C116.09 118.918 116.685 118.598 117.28 118.208C117.53 118.061 117.6 118.157 117.594 118.47C117.594 119.238 117.594 120.006 117.594 120.755C117.621 120.894 117.6 121.037 117.537 121.164C117.473 121.29 117.369 121.391 117.242 121.453H117.274ZM134.618 136.96L136.743 135.75V138.912C135.981 139.353 135.252 139.782 134.516 140.192C134.464 140.192 134.368 140.096 134.368 139.993C134.368 139.149 134.368 138.285 134.368 137.433C134.355 137.338 134.373 137.241 134.417 137.157C134.462 137.072 134.532 137.003 134.618 136.96ZM129.824 126.963C130.464 126.598 131.06 126.253 131.68 125.881C131.885 125.76 131.975 125.798 131.975 126.086C131.975 126.905 131.975 127.718 131.975 128.525C131.988 128.634 131.966 128.746 131.914 128.843C131.861 128.94 131.779 129.019 131.68 129.069C131.085 129.401 130.484 129.709 129.888 130.105C129.632 130.259 129.575 130.15 129.575 129.837C129.575 128.947 129.575 128.07 129.575 127.187C129.65 127.106 129.734 127.033 129.824 126.969V126.963ZM129.581 133.837C129.564 133.726 129.584 133.613 129.637 133.515C129.69 133.417 129.774 133.339 129.876 133.293C130.183 133.126 130.484 132.947 130.791 132.768C131.098 132.589 131.399 132.429 131.7 132.243C131.898 132.121 131.975 132.185 131.968 132.448C131.968 133.28 131.968 134.105 131.968 134.925C131.982 135.027 131.963 135.131 131.914 135.222C131.864 135.313 131.787 135.386 131.693 135.43C131.053 135.776 130.477 136.121 129.863 136.486C129.658 136.614 129.575 136.557 129.581 136.269C129.588 135.462 129.588 134.649 129.581 133.843V133.837ZM127.188 115.315C127.205 115.423 127.188 115.534 127.138 115.632C127.089 115.729 127.01 115.809 126.912 115.859C126.272 116.205 125.671 116.563 125.056 116.928C124.89 117.024 124.794 117.024 124.794 116.761C124.794 115.801 124.794 114.841 124.794 113.875C125.479 113.478 126.164 113.094 126.848 112.685C127.092 112.537 127.168 112.601 127.162 112.934C127.175 113.741 127.181 114.56 127.188 115.321V115.315ZM122.388 118.035C122.412 118.162 122.394 118.293 122.336 118.409C122.278 118.525 122.184 118.618 122.068 118.675C121.485 118.995 120.896 119.315 120.314 119.686C120.064 119.833 119.988 119.757 119.994 119.437C119.994 117.587 119.994 115.75 119.994 113.913C119.994 113.709 119.994 113.497 120.212 113.363L124.8 110.72V113.92C124.16 114.31 123.45 114.733 122.778 115.091C122.629 115.159 122.508 115.274 122.434 115.42C122.359 115.565 122.336 115.731 122.368 115.891C122.4 116.563 122.375 117.312 122.388 118.041V118.035ZM119.994 104.32C119.969 104.192 119.988 104.059 120.047 103.943C120.106 103.827 120.202 103.735 120.32 103.68C120.82 103.405 121.325 103.104 121.831 102.816C122.471 102.451 122.381 102.585 122.381 101.734C122.381 101.094 122.381 100.416 122.381 99.7693C122.366 99.6409 122.391 99.511 122.451 99.3967C122.512 99.2825 122.606 99.1893 122.72 99.1293C123.296 98.8157 123.866 98.4893 124.442 98.1373C124.711 97.9709 124.813 98.0221 124.807 98.4061C124.807 99.3405 124.807 100.185 124.807 101.12L127.188 99.7437C127.188 100.768 127.188 101.721 127.188 102.694C127.129 102.855 127.024 102.995 126.887 103.097C125.408 103.968 123.924 104.793 122.445 105.747C122.445 106.669 122.4 107.609 122.4 108.518C122.42 108.635 122.402 108.755 122.347 108.86C122.293 108.965 122.206 109.049 122.1 109.101C121.511 109.421 120.928 109.741 120.346 110.112C120.103 110.259 120.007 110.214 120.013 109.881C120.009 108.021 120.002 106.167 119.994 104.32ZM115.245 148.166C115.975 147.744 116.704 147.315 117.434 146.886C117.492 146.886 117.594 146.976 117.594 147.072C117.594 147.925 117.594 148.795 117.594 149.683C117.578 149.817 117.519 149.942 117.428 150.041C116.704 150.477 115.988 150.886 115.245 151.321V148.166ZM117.607 175.11C117.623 175.228 117.601 175.348 117.544 175.452C117.488 175.557 117.4 175.641 117.293 175.693C116.698 176.025 116.103 176.371 115.501 176.729C115.296 176.851 115.207 176.806 115.213 176.512C115.213 176.102 115.213 175.705 115.213 175.296C115.213 174.886 115.213 174.464 115.213 174.016C115.247 173.845 115.329 173.687 115.45 173.561C116.09 173.177 116.692 172.838 117.306 172.473C117.53 172.339 117.588 172.441 117.588 172.71C117.6 173.517 117.6 174.31 117.607 175.104V175.11ZM117.607 165.51C117.589 165.686 117.525 165.854 117.421 165.997C116.711 166.432 116 166.835 115.232 167.277V165.12C115.232 164.109 115.232 164.102 115.981 163.673L117.69 162.72C117.607 163.652 117.575 164.587 117.594 165.523L117.607 165.51ZM119.584 161.593C118.944 161.926 118.304 162.329 117.664 162.701C117.574 161.78 117.548 160.854 117.588 159.929C117.588 159.629 117.517 159.552 117.287 159.693C116.692 160.051 116.09 160.397 115.495 160.717C115.399 160.774 115.22 160.717 115.213 160.627C115.213 159.693 115.213 158.739 115.213 157.715L117.063 156.653C117.652 156.307 117.6 156.416 117.6 155.603V149.965L119.162 149.062C119.988 148.582 119.988 148.582 119.988 149.702C119.988 153.395 119.988 157.094 119.988 160.787C120 161.222 119.917 161.421 119.572 161.606L119.584 161.593ZM124.461 168.365C121.844 169.721 122.471 170.285 122.4 166.758C122.4 166.451 122.324 166.393 122.1 166.534C119.412 167.987 120.122 168.416 120 164.992C119.978 164.853 120.003 164.71 120.07 164.586C120.137 164.463 120.243 164.364 120.372 164.307C121.85 163.469 123.328 162.605 124.813 161.747C124.813 163.718 124.813 165.702 124.813 167.667C124.842 167.809 124.821 167.957 124.755 168.086C124.689 168.215 124.581 168.318 124.448 168.377L124.461 168.365ZM127.2 160.358L124.8 161.741C124.8 159.737 124.8 157.734 124.8 155.731C124.788 155.629 124.807 155.526 124.855 155.436C124.903 155.345 124.978 155.272 125.069 155.225C125.709 154.88 126.311 154.521 126.932 154.157C127.092 154.061 127.194 154.054 127.194 154.317C127.181 156.307 127.188 158.304 127.188 160.371L127.2 160.358ZM127.2 150.349C127.215 150.477 127.191 150.607 127.13 150.721C127.069 150.835 126.976 150.929 126.861 150.989C126.292 151.296 125.716 151.629 125.146 151.981C124.89 152.134 124.788 152.102 124.8 151.737C124.8 150.957 124.8 150.208 124.8 149.433C124.8 149.088 124.736 149.005 124.468 149.165C123.885 149.529 123.296 149.805 122.714 150.195C122.477 150.336 122.375 150.297 122.381 149.958C122.381 149.158 122.381 148.365 122.381 147.571C122.364 147.455 122.385 147.336 122.442 147.233C122.499 147.13 122.587 147.049 122.695 147.001C123.303 146.662 123.911 146.297 124.525 145.952C124.618 145.909 124.695 145.837 124.745 145.747C124.794 145.658 124.814 145.554 124.8 145.453C124.8 144.544 124.8 143.616 124.8 142.643C123.322 143.411 121.85 144.32 120.372 145.171C120.084 145.337 119.981 145.286 119.988 144.889C119.988 144.115 119.988 143.353 119.988 142.592C119.963 142.464 119.981 142.331 120.04 142.215C120.099 142.099 120.196 142.007 120.314 141.952C120.884 141.632 121.46 141.312 122.036 140.966C122.156 140.913 122.255 140.821 122.317 140.705C122.38 140.589 122.402 140.456 122.381 140.326C122.381 136.23 122.426 132.07 122.343 128C121.664 128.397 121.012 128.755 120.359 129.158C120.064 129.337 119.975 129.261 119.981 128.87C119.981 127.987 119.981 127.123 119.981 126.189L124.788 123.417V120.857C124.788 120.217 124.788 120.217 125.261 119.949C125.735 119.68 126.317 119.36 126.842 119.033C127.111 118.867 127.181 118.957 127.175 119.296C127.175 121.286 127.175 123.225 127.175 125.216L129.562 123.84V127.149C129.485 127.159 129.41 127.178 129.338 127.206C127.834 128.102 126.33 128.883 124.826 129.849V132.998L126.688 131.923C127.194 131.635 127.194 131.635 127.194 132.288V141.248C128.679 140.384 130.138 139.558 131.623 138.688C131.892 138.528 131.994 138.56 131.981 138.95C131.981 139.693 131.981 140.429 131.981 141.152C132.011 141.303 131.988 141.46 131.917 141.597C131.846 141.734 131.731 141.843 131.591 141.907C130.119 142.733 128.672 143.584 127.194 144.435C127.188 146.432 127.181 148.39 127.194 150.361L127.2 150.349ZM136.749 151.68C134.477 152.998 132.224 154.291 129.952 155.616C129.664 155.782 129.575 155.737 129.575 155.341C129.575 152.478 129.575 149.621 129.575 146.771C129.55 146.619 129.576 146.463 129.649 146.328C129.722 146.193 129.838 146.085 129.978 146.022C132.111 144.81 134.245 143.582 136.378 142.336C136.692 142.15 136.775 142.221 136.775 142.63C136.743 145.657 136.756 148.653 136.749 151.68ZM96.3715 162.24C96.1347 162.381 96.0387 162.349 96.0387 162.016C96.0387 160.153 96.0387 158.304 96.0387 156.454C96.0228 156.327 96.0455 156.198 96.1036 156.084C96.1618 155.97 96.2529 155.876 96.3651 155.814C97.7603 155.021 99.1512 154.218 100.538 153.408C100.788 153.261 100.852 153.344 100.852 153.664C100.852 154.598 100.852 155.52 100.852 156.448C102.317 155.603 103.783 154.745 105.248 153.92C105.384 153.863 105.497 153.762 105.567 153.633C105.636 153.503 105.66 153.354 105.632 153.209C105.632 152.326 105.632 151.424 105.632 150.528C104.039 151.289 102.432 152.39 100.852 153.203C100.852 152.256 100.852 151.36 100.852 150.451C100.852 150.144 100.775 150.08 100.551 150.214C99.9619 150.566 99.3795 150.854 98.7971 151.238C98.5283 151.398 98.4515 151.321 98.4515 150.976C98.4515 148.985 98.4515 147.053 98.4515 145.056C96.9731 145.913 95.5203 146.739 94.0419 147.616C93.7347 147.801 93.6323 147.725 93.6451 147.309C93.6451 146.566 93.6451 145.83 93.6451 145.107C93.6157 144.962 93.6372 144.812 93.7061 144.681C93.7749 144.551 93.8867 144.448 94.0227 144.39C96.2947 143.072 98.5667 141.83 100.839 140.429C100.839 138.381 100.839 136.39 100.839 134.393C100.839 134.131 100.73 134.144 100.57 134.24C99.9299 134.598 99.3283 134.963 98.7075 135.309C98.6157 135.356 98.5409 135.43 98.4938 135.522C98.4468 135.614 98.4297 135.718 98.4451 135.821C98.4451 136.781 98.4451 137.677 98.4451 138.656L96.8579 139.577C96.0323 140.051 96.0323 140.051 96.0323 138.937V136.851C95.3283 137.261 94.6883 137.651 94.0483 137.99C93.7091 138.163 93.6323 138.374 93.6323 138.784C93.6323 140.704 93.6771 142.624 93.6323 144.621L88.9155 147.347C88.8451 148.333 88.9155 149.197 88.8771 150.157C88.8771 150.528 88.9795 150.547 89.2291 150.393C89.8179 150.041 90.4003 149.753 90.9891 149.376C91.2003 149.248 91.2771 149.312 91.2771 149.593C91.2771 150.393 91.2771 151.193 91.2771 151.981C91.2947 152.105 91.271 152.232 91.2098 152.342C91.1485 152.451 91.053 152.538 90.9379 152.589C90.3811 152.902 89.8179 153.229 89.2547 153.549C89.1219 153.612 89.0132 153.717 88.945 153.847C88.8769 153.977 88.8531 154.127 88.8771 154.272C88.8771 156.192 88.8451 158.201 88.8771 160.128C89.5811 159.725 90.2467 159.328 90.9443 158.95C91.0403 158.893 91.2195 158.95 91.2195 159.001C91.2195 159.968 91.2195 160.921 91.2195 161.99L88.8771 163.341V166.541C89.5811 166.131 90.2467 165.76 90.9123 165.357C91.1619 165.209 91.2387 165.28 91.2323 165.6C91.2323 166.406 91.2323 167.193 91.2323 167.993C91.2323 168.269 91.3027 168.345 91.5203 168.217C92.1262 167.855 92.7342 167.503 93.3443 167.161C93.4427 167.109 93.5225 167.027 93.5729 166.927C93.6232 166.828 93.6418 166.715 93.6259 166.605C93.6259 165.683 93.6259 164.761 93.6259 163.821L95.9747 162.464C96.0067 163.36 95.9747 164.262 95.9747 165.177C95.9747 165.491 96.0323 165.6 96.2883 165.446C96.8899 165.081 97.4851 164.736 98.0803 164.409C98.1988 164.355 98.2951 164.262 98.3533 164.146C98.4116 164.029 98.4281 163.897 98.4003 163.769C98.4003 162.861 98.4003 161.939 98.4003 161.017C97.7667 161.44 97.0691 161.83 96.3715 162.24ZM93.6515 163.801C92.8899 164.243 92.1731 164.665 91.4499 165.081C91.3923 165.081 91.2771 165.011 91.2771 164.921C91.2771 163.981 91.2771 163.001 91.2771 162.016C92.0387 161.574 92.7427 161.165 93.4403 160.781C93.5171 160.736 93.6451 160.825 93.6515 160.921C93.6579 161.837 93.6515 162.79 93.6515 163.801ZM95.7187 153.024C95.2387 153.286 94.7587 153.568 94.2787 153.849C93.5811 154.265 93.6387 154.099 93.6387 155.027C93.6387 155.667 93.6387 156.339 93.6387 156.985C93.6565 157.103 93.6363 157.224 93.5811 157.33C93.5259 157.436 93.4385 157.521 93.3315 157.574C92.7363 157.907 92.1411 158.214 91.5459 158.605C91.3155 158.745 91.2451 158.662 91.2451 158.368C91.2451 157.427 91.2451 156.493 91.2451 155.558C91.2451 154.624 91.2451 153.779 91.2451 152.896C91.2185 152.757 91.2386 152.613 91.3023 152.487C91.366 152.361 91.4696 152.259 91.5971 152.198C92.9603 151.43 94.3299 150.637 95.6931 149.837C95.9299 149.696 96.0323 149.728 96.0259 150.067C96.0259 150.854 96.0259 151.635 96.0259 152.403C96.0469 152.526 96.0284 152.652 95.9733 152.763C95.9181 152.875 95.8289 152.966 95.7187 153.024ZM132.429 112.704L148.724 103.296V81.5869C148.724 80.9469 148.724 80.9469 148.231 81.2157L132.429 90.3357C131.968 90.5981 131.968 90.6045 131.968 91.2125V112.333C131.968 112.941 131.968 112.941 132.429 112.678V112.704ZM134.765 92.1597C138.477 90.0264 142.187 87.8931 145.895 85.7597C146.266 85.5485 146.343 85.6765 146.336 86.1309C146.336 88.6013 146.336 91.0653 146.336 93.5293C146.336 95.9933 146.336 98.4637 146.336 100.921C146.366 101.088 146.339 101.259 146.26 101.409C146.181 101.558 146.055 101.677 145.901 101.747C142.189 103.88 138.479 106.014 134.772 108.147C134.458 108.326 134.349 108.288 134.349 107.846C134.349 102.88 134.349 97.9176 134.349 92.9597C134.321 92.7992 134.347 92.6339 134.422 92.4893C134.497 92.3448 134.618 92.2289 134.765 92.1597ZM89.3251 137.6C94.6201 134.536 99.9107 131.479 105.197 128.429C105.658 128.166 105.658 128.166 105.658 127.552V106.432C105.658 105.824 105.658 105.824 105.197 106.086C99.7699 109.241 94.3171 112.307 88.9219 115.507C88.8707 122.79 88.9219 130.003 88.9219 137.267C88.8707 137.709 88.9603 137.779 89.2995 137.6H89.3251ZM91.2899 117.811C91.2681 117.664 91.2936 117.515 91.3626 117.383C91.4316 117.252 91.5407 117.146 91.6739 117.081C95.42 114.948 99.164 112.787 102.906 110.598C103.207 110.419 103.271 110.541 103.271 110.905C103.271 113.427 103.271 115.936 103.271 118.445C103.271 120.953 103.271 123.379 103.271 125.837C103.296 125.989 103.27 126.146 103.197 126.282C103.124 126.419 103.008 126.528 102.868 126.592C99.1384 128.725 95.4072 130.88 91.6739 133.056C91.3923 133.222 91.2835 133.184 91.2835 132.787C91.2792 127.778 91.2728 122.779 91.2643 117.792L91.2899 117.811ZM105.236 163.52C99.7955 166.673 94.3576 169.815 88.9219 172.947C88.8643 180.243 88.9219 187.462 88.9219 194.739C88.9219 195.187 89.0115 195.257 89.3507 195.059C94.795 191.906 100.239 188.761 105.684 185.625C105.684 178.372 105.684 171.119 105.684 163.865C105.639 163.373 105.549 163.302 105.21 163.501L105.236 163.52ZM102.868 184.057C99.1427 186.191 95.4222 188.339 91.7059 190.502C91.3731 190.694 91.2835 190.605 91.2899 190.182C91.2899 185.229 91.2899 180.281 91.2899 175.341C91.2586 175.174 91.2837 175.002 91.3614 174.851C91.4391 174.7 91.5648 174.58 91.7187 174.509C93.5875 173.446 95.4627 172.358 97.3315 171.277C99.2003 170.195 101.031 169.152 102.88 168.077C103.194 167.891 103.277 167.974 103.271 168.384C103.271 173.363 103.271 178.34 103.271 183.315C103.285 183.465 103.25 183.616 103.173 183.746C103.096 183.876 102.98 183.978 102.842 184.038L102.868 184.057ZM148.724 109.664L146.362 111.027C146.362 110.061 146.362 109.165 146.362 108.256C146.362 107.955 146.292 107.878 146.055 108.019C145.46 108.377 144.864 108.723 144.269 109.049C144.162 109.104 144.075 109.191 144.021 109.298C143.967 109.405 143.949 109.526 143.968 109.645C143.968 110.432 143.968 111.225 143.968 112.032C143.968 112.339 144.045 112.39 144.269 112.256C144.858 111.897 145.44 111.616 146.029 111.225C146.298 111.059 146.368 111.155 146.362 111.494C146.362 112.269 146.362 113.037 146.362 113.785C146.382 113.916 146.358 114.049 146.294 114.165C146.231 114.281 146.131 114.372 146.01 114.425C144.525 115.27 143.079 116.115 141.588 116.985C141.588 118.016 141.588 118.995 141.588 119.961C141.588 120.045 141.76 120.083 141.85 120.032C142.4 119.737 142.951 119.392 143.501 119.091C144.052 118.79 143.956 118.835 143.956 119.456C143.956 121.222 143.956 122.982 143.956 124.749C143.956 125.094 144.039 125.171 144.301 125.011C144.864 124.665 145.428 124.371 145.984 124.025C146.26 123.859 146.362 123.91 146.356 124.288C146.356 125.005 146.356 125.709 146.356 126.393C146.394 126.567 146.371 126.749 146.291 126.908C146.21 127.066 146.077 127.192 145.914 127.264C144.461 128.051 143.028 128.966 141.575 129.734C141.575 127.769 141.575 125.849 141.575 123.885C141.575 123.488 141.485 123.417 141.197 123.603C140.634 123.949 140.071 124.243 139.508 124.576C139.382 124.635 139.28 124.733 139.215 124.855C139.151 124.978 139.128 125.118 139.149 125.254C139.149 127.213 139.111 129.203 139.149 131.142C139.943 130.662 140.704 130.265 141.492 129.862C141.492 130.905 141.549 131.891 141.536 132.979C142.228 132.576 142.861 132.243 143.456 131.833C143.834 131.59 143.917 131.725 143.898 132.192C143.898 132.941 143.898 133.657 143.898 134.4C143.898 134.669 143.956 134.758 144.18 134.624C144.82 134.259 145.396 133.907 146.004 133.574C146.103 133.523 146.183 133.443 146.235 133.345C146.287 133.246 146.306 133.134 146.292 133.024C146.292 132.294 146.292 131.558 146.292 130.822C146.292 130.221 146.292 130.214 146.752 129.952L148.634 128.864C148.743 125.734 148.634 122.707 148.679 119.609C148.679 119.309 148.583 119.296 148.384 119.417C147.796 119.763 147.213 120.057 146.624 120.435C146.362 120.595 146.279 120.512 146.285 120.166C146.285 119.392 146.285 118.63 146.285 117.875C146.26 117.747 146.279 117.615 146.338 117.499C146.397 117.383 146.493 117.29 146.612 117.235C147.162 116.934 147.712 116.595 148.263 116.294C148.411 116.23 148.533 116.119 148.609 115.977C148.686 115.835 148.713 115.672 148.685 115.513C148.692 113.568 148.756 111.584 148.698 109.645L148.724 109.664ZM110.4 147.769C110.4 146.995 110.4 146.221 110.4 145.446C110.4 144.537 110.4 144.537 111.085 144.166L112.768 143.2V136.845L110.477 138.169C110.431 138.214 110.392 138.266 110.362 138.323C110.382 138.37 110.395 138.419 110.4 138.47C110.4 140.39 110.4 142.31 110.4 144.23C110.415 144.332 110.396 144.436 110.346 144.526C110.297 144.616 110.219 144.687 110.125 144.729C109.485 145.075 108.909 145.421 108.301 145.785C108.071 145.92 108 145.843 108 145.542C108 144.755 108 143.987 108 143.2C108 142.88 107.936 142.797 107.687 142.944C106.304 143.75 104.928 144.544 103.546 145.331C103.428 145.386 103.331 145.479 103.272 145.595C103.213 145.711 103.195 145.843 103.22 145.971C103.22 146.745 103.22 147.526 103.22 148.307C103.22 148.64 103.296 148.71 103.54 148.557C104.122 148.205 104.711 147.917 105.293 147.539C105.543 147.385 105.62 147.469 105.613 147.789C105.613 148.723 105.613 149.651 105.613 150.579C107.226 149.542 108.8 148.665 110.4 147.769ZM146.701 155.513C147.277 155.213 147.847 154.873 148.423 154.534C148.528 154.481 148.614 154.397 148.668 154.292C148.722 154.187 148.741 154.068 148.724 153.952C148.724 153.152 148.724 152.339 148.724 151.52C148.724 151.257 148.653 151.2 148.461 151.321C147.821 151.686 147.22 152.045 146.599 152.39C146.501 152.443 146.423 152.526 146.375 152.625C146.327 152.725 146.311 152.838 146.33 152.947C146.33 153.728 146.33 154.515 146.33 155.283C146.344 155.412 146.319 155.542 146.257 155.657C146.195 155.771 146.1 155.864 145.984 155.923C145.408 156.237 144.839 156.563 144.263 156.909C144.149 156.96 144.055 157.047 143.995 157.157C143.935 157.267 143.912 157.393 143.93 157.517C143.93 159.355 143.93 161.197 143.93 163.04C143.93 163.405 144.032 163.43 144.282 163.277C144.96 162.867 145.639 162.489 146.317 162.099L148.423 160.883C148.523 160.839 148.607 160.763 148.66 160.667C148.713 160.571 148.733 160.46 148.717 160.352C148.717 159.545 148.717 158.733 148.717 157.913C148.717 157.6 148.628 157.568 148.41 157.702C147.821 158.054 147.239 158.342 146.65 158.72C146.413 158.867 146.317 158.803 146.324 158.477C146.324 157.721 146.324 156.973 146.324 156.23C146.301 156.087 146.326 155.94 146.394 155.812C146.462 155.684 146.57 155.582 146.701 155.52V155.513ZM110.413 132.115C110.406 132.009 110.391 131.905 110.368 131.801L108.25 133.024C108.02 133.152 108.02 133.344 108.02 133.555C108.02 135.417 108.02 137.267 108.02 139.129C108.02 139.501 108.128 139.513 108.372 139.366C109 138.944 109.671 138.59 110.375 138.31C110.398 138.181 110.413 138.051 110.42 137.92L110.413 132.115ZM112.5 156.128L108.02 158.688C108.02 159.603 108.02 160.512 108.02 161.433C108.02 161.792 108.116 161.824 108.365 161.677C109.844 160.813 111.322 159.961 112.794 159.117C112.794 158.182 112.794 157.254 112.794 156.313C112.813 156.006 112.717 155.987 112.5 156.115V156.128ZM105.389 137.856C104.749 138.233 104.109 138.592 103.469 138.95C103.383 138.992 103.313 139.059 103.267 139.143C103.221 139.227 103.202 139.323 103.213 139.417C103.213 140.269 103.213 141.126 103.213 141.977C103.213 142.259 103.316 142.265 103.495 142.157C103.808 141.965 104.135 141.792 104.442 141.606C104.749 141.421 105.082 141.28 105.351 141.069C105.473 140.945 105.557 140.79 105.594 140.621C105.594 139.757 105.594 138.905 105.594 138.061C105.632 137.805 105.6 137.734 105.389 137.843V137.856ZM91.0147 139.776C90.3747 140.115 89.7347 140.48 89.0947 140.864C88.9791 140.973 88.897 141.113 88.8579 141.267C88.8579 142.227 88.8579 143.187 88.8579 144.185C89.6195 143.744 90.3299 143.341 91.0403 142.905C91.1439 142.799 91.2111 142.662 91.2323 142.515C91.2323 141.651 91.2323 140.793 91.2323 139.955C91.2515 139.853 91.1043 139.737 91.0147 139.782V139.776ZM110.413 128.173C110.413 128.441 110.458 128.544 110.682 128.409C111.322 128.045 111.917 127.686 112.538 127.341C112.63 127.295 112.705 127.221 112.753 127.131C112.801 127.04 112.82 126.937 112.807 126.835C112.807 125.901 112.807 124.953 112.807 124.013L110.432 125.389C110.413 126.323 110.42 127.245 110.413 128.179V128.173ZM105.364 131.475L103.508 132.55C103.415 132.597 103.34 132.672 103.291 132.763C103.243 132.855 103.225 132.959 103.239 133.062C103.239 133.901 103.239 134.739 103.239 135.584C103.239 135.833 103.322 135.859 103.495 135.757C104.135 135.385 104.775 135.021 105.383 134.662C105.468 134.62 105.538 134.552 105.583 134.469C105.627 134.385 105.645 134.289 105.632 134.195C105.632 133.779 105.632 133.357 105.632 132.915C105.632 132.473 105.632 132.077 105.632 131.635C105.639 131.411 105.556 131.366 105.364 131.481V131.475ZM98.5027 157.837V161.005L100.884 159.635V156.435L98.5027 157.837ZM108.282 117.069C108.19 117.116 108.115 117.191 108.067 117.282C108.019 117.374 108 117.478 108.013 117.581C108.013 118.387 108.013 119.187 108.013 120.006C108.013 120.352 108.122 120.358 108.346 120.224C109.031 119.814 109.716 119.43 110.4 119.04V115.84C109.696 116.249 108.986 116.659 108.282 117.049V117.069ZM108.34 123.392C108.221 123.446 108.124 123.538 108.064 123.655C108.005 123.771 107.987 123.904 108.013 124.032C108.013 124.804 108.013 125.585 108.013 126.374C108.013 126.713 108.103 126.758 108.34 126.611C109.024 126.201 109.716 125.811 110.4 125.414V122.214C109.716 122.611 109.024 123.014 108.34 123.392ZM138.88 112.134C138.24 112.499 137.639 112.857 137.018 113.203C136.927 113.249 136.852 113.323 136.804 113.413C136.756 113.504 136.737 113.607 136.749 113.709C136.749 114.547 136.749 115.398 136.749 116.23C136.749 116.339 136.858 116.467 136.916 116.435C137.639 116.045 138.362 115.616 139.124 115.155C139.124 114.137 139.124 113.235 139.124 112.269C139.143 112.032 139.047 112.038 138.88 112.134ZM108.02 168.563C108.02 169.433 108.02 170.31 108.02 171.174C108.02 171.264 108.135 171.36 108.199 171.328C108.922 170.931 109.645 170.502 110.381 170.08V166.88L108.32 168.096C108.225 168.128 108.143 168.192 108.089 168.277C108.034 168.362 108.01 168.463 108.02 168.563ZM134.125 146.803C133.812 146.95 133.485 147.155 133.178 147.334C132.871 147.513 132.538 147.705 132.231 147.878C132.144 147.92 132.073 147.987 132.026 148.07C131.979 148.154 131.959 148.25 131.968 148.345C131.968 149.197 131.968 150.061 131.968 150.905C131.968 151.008 132.109 151.11 132.186 151.072C132.826 150.726 133.466 150.355 134.106 149.958C134.216 149.84 134.292 149.694 134.324 149.536C134.324 148.672 134.324 147.814 134.324 146.976C134.343 146.893 134.208 146.79 134.125 146.829V146.803ZM110.042 154.323C110.175 154.266 110.285 154.165 110.354 154.037C110.423 153.909 110.446 153.762 110.42 153.619C110.42 152.736 110.42 151.833 110.42 150.937L112.794 149.549V146.387L110.42 147.757C110.42 148.813 110.42 149.869 110.42 150.957C109.735 151.347 109.05 151.757 108.365 152.128C108.252 152.189 108.159 152.282 108.1 152.396C108.041 152.511 108.017 152.64 108.032 152.768C108.032 153.67 108.032 154.592 108.032 155.507L100.877 159.648C100.877 160.576 100.877 161.51 100.877 162.445C100.877 162.765 100.967 162.784 101.184 162.656L108.045 158.688C108.045 157.625 108.045 156.569 108.045 155.488C108.698 155.129 109.37 154.72 110.042 154.349V154.323ZM137.159 103.545C139.418 102.227 141.639 100.941 143.917 99.6349C143.988 96.5821 143.917 93.6253 143.956 90.5917C143.956 90.1309 143.847 90.0733 143.514 90.2717C141.255 91.6221 139.034 92.8317 136.749 94.2205C136.749 97.2349 136.749 100.224 136.749 103.245C136.743 103.712 136.845 103.757 137.159 103.571V103.545ZM93.6387 128.185C93.6387 128.55 93.7155 128.627 93.9971 128.461C95.0851 127.821 96.1731 127.181 97.2611 126.541C98.3491 125.901 99.3923 125.299 100.461 124.704C100.596 124.648 100.707 124.547 100.777 124.419C100.847 124.291 100.871 124.143 100.845 124C100.845 121.12 100.845 118.24 100.845 115.341C100.845 114.995 100.768 114.925 100.506 115.072C98.3299 116.352 96.1539 117.608 93.9779 118.841C93.8645 118.902 93.7721 118.996 93.7128 119.11C93.6534 119.224 93.6298 119.354 93.6451 119.481C93.6579 122.438 93.6579 125.318 93.6515 128.211L93.6387 128.185ZM100.48 172.627C98.2211 173.952 96.0003 175.238 93.7091 176.544C93.6451 179.597 93.7091 182.553 93.6771 185.581C93.6771 186.029 93.7667 186.118 94.1123 185.913C96.3715 184.563 98.5923 183.353 100.877 181.965C100.877 178.95 100.877 175.961 100.877 172.947C100.858 172.518 100.775 172.435 100.48 172.627Z" fill="#263238"/>
<path d="M96.2243 224.94C96.2448 224.295 96.3219 223.653 96.4547 223.02C96.5851 222.41 96.7826 221.815 97.0435 221.248C97.3006 220.7 97.6276 220.188 98.0163 219.725C98.407 219.263 98.8747 218.874 99.3987 218.572C99.8059 218.302 100.28 218.149 100.768 218.131C100.949 218.13 101.127 218.164 101.294 218.232C101.461 218.3 101.613 218.401 101.741 218.528C102.023 218.838 102.227 219.211 102.336 219.616C102.479 220.146 102.559 220.692 102.573 221.241C102.573 221.446 102.573 221.676 102.573 221.932C102.573 222.188 102.573 222.444 102.573 222.72C102.573 222.995 102.573 223.251 102.573 223.507C102.573 223.763 102.573 224 102.573 224.217C102.548 224.828 102.476 225.436 102.356 226.035C102.237 226.625 102.052 227.201 101.805 227.75L102.618 229.075C102.627 229.119 102.627 229.165 102.618 229.209C102.626 229.314 102.604 229.418 102.554 229.51C102.518 229.59 102.46 229.659 102.388 229.709L101.364 230.297C101.236 230.361 101.14 230.361 101.076 230.297C101.018 230.233 100.967 230.176 100.935 230.131L100.589 229.568C100.41 229.758 100.217 229.935 100.013 230.099C99.8125 230.262 99.5984 230.407 99.3731 230.534C98.9606 230.805 98.4836 230.962 97.9907 230.989C97.6272 230.988 97.2781 230.846 97.0179 230.592C96.733 230.285 96.5305 229.91 96.4291 229.504C96.2897 228.975 96.2124 228.431 96.1987 227.884C96.1987 227.673 96.1987 227.443 96.1987 227.193C96.1987 226.944 96.1987 226.681 96.1987 226.406C96.1987 226.131 96.1987 225.868 96.1987 225.612C96.1987 225.356 96.2179 225.152 96.2243 224.94ZM101.114 222.201C101.161 221.633 100.981 221.07 100.615 220.633C100.308 220.377 99.9043 220.39 99.3987 220.678C98.8676 220.999 98.4442 221.472 98.1827 222.035C97.8628 222.705 97.6925 223.436 97.6835 224.179C97.6835 224.608 97.6835 225.081 97.6835 225.6C97.6835 226.118 97.6835 226.579 97.6835 226.989C97.6579 227.268 97.6888 227.55 97.7746 227.817C97.8604 228.084 97.9992 228.331 98.1827 228.544C98.4899 228.8 98.8931 228.78 99.3987 228.492C99.9282 228.172 100.351 227.702 100.615 227.142C100.934 226.474 101.104 225.745 101.114 225.004C101.114 224.576 101.114 224.102 101.114 223.59C101.114 223.078 101.12 222.611 101.12 222.201H101.114Z" fill="#FAFAFA"/>
<path d="M107.085 214.329C107.987 213.811 108.666 213.74 109.133 214.111C109.6 214.483 109.837 215.238 109.837 216.383C109.841 217.157 109.72 217.927 109.479 218.662C109.244 219.351 108.882 219.989 108.41 220.543L109.901 223.788C109.924 223.841 109.935 223.898 109.933 223.955C109.933 224.057 109.909 224.158 109.863 224.249C109.832 224.334 109.773 224.407 109.696 224.454L108.781 224.985C108.634 225.068 108.531 225.081 108.461 224.985C108.399 224.927 108.349 224.858 108.314 224.78L106.88 221.747L105.447 222.579V226.451C105.444 226.577 105.414 226.702 105.357 226.815C105.317 226.918 105.245 227.006 105.152 227.065L104.282 227.571C104.254 227.596 104.217 227.61 104.179 227.61C104.142 227.61 104.105 227.596 104.077 227.571C104.045 227.534 104.02 227.492 104.004 227.446C103.989 227.399 103.983 227.35 103.987 227.302V216.556C103.99 216.43 104.02 216.305 104.077 216.191C104.119 216.088 104.19 215.999 104.282 215.935L107.085 214.329ZM105.466 220.499L107.027 219.596C107.421 219.378 107.758 219.071 108.013 218.7C108.278 218.254 108.405 217.74 108.378 217.222C108.378 216.582 108.256 216.255 108.013 216.191C107.665 216.144 107.311 216.233 107.027 216.441L105.466 217.343V220.499Z" fill="#FAFAFA"/>
<path d="M118.343 215.776C118.351 215.638 118.39 215.505 118.458 215.385C118.503 215.294 118.571 215.217 118.656 215.161L119.533 214.656C119.563 214.632 119.6 214.62 119.639 214.62C119.677 214.62 119.714 214.632 119.744 214.656C119.777 214.693 119.801 214.737 119.814 214.784C119.828 214.832 119.83 214.882 119.821 214.931C119.795 215.433 119.722 215.933 119.603 216.422C119.47 216.962 119.277 217.486 119.027 217.984C118.76 218.51 118.429 219.003 118.042 219.449C117.632 219.918 117.148 220.316 116.608 220.627C116.214 220.882 115.759 221.028 115.29 221.049C114.927 221.048 114.579 220.909 114.317 220.659C114.011 220.357 113.79 219.979 113.677 219.564C113.518 219.015 113.429 218.447 113.415 217.875C113.415 217.459 113.415 216.998 113.415 216.492C113.415 215.987 113.415 215.513 113.415 215.078C113.44 214.406 113.528 213.737 113.677 213.081C113.821 212.455 114.036 211.848 114.317 211.27C114.574 210.726 114.901 210.219 115.29 209.76C115.662 209.313 116.108 208.934 116.608 208.64C117.037 208.36 117.531 208.195 118.042 208.16C118.399 208.152 118.748 208.27 119.027 208.492C119.299 208.734 119.499 209.046 119.603 209.395C119.729 209.793 119.802 210.206 119.821 210.624C119.828 210.752 119.801 210.88 119.744 210.995C119.696 211.092 119.623 211.176 119.533 211.238L118.656 211.744C118.625 211.762 118.59 211.772 118.554 211.772C118.518 211.772 118.482 211.762 118.451 211.744C118.387 211.712 118.349 211.622 118.336 211.488C118.315 211.293 118.263 211.103 118.183 210.924C118.112 210.77 117.999 210.639 117.856 210.547C117.699 210.457 117.518 210.419 117.338 210.438C117.079 210.477 116.83 210.568 116.608 210.707C116.326 210.874 116.077 211.091 115.872 211.347C115.661 211.602 115.485 211.884 115.347 212.185C115.201 212.499 115.093 212.83 115.027 213.171C114.951 213.518 114.906 213.871 114.893 214.227C114.893 214.656 114.893 215.123 114.893 215.635C114.893 216.147 114.893 216.608 114.893 217.017C114.9 217.327 114.945 217.634 115.027 217.932C115.081 218.157 115.191 218.364 115.347 218.534C115.487 218.674 115.674 218.757 115.872 218.764C116.135 218.762 116.391 218.682 116.608 218.534C116.88 218.382 117.126 218.187 117.338 217.958C117.538 217.741 117.714 217.503 117.863 217.248C117.999 217.008 118.11 216.755 118.195 216.492C118.268 216.259 118.318 216.019 118.343 215.776Z" fill="#FAFAFA"/>
<path d="M120.826 210.733C120.852 210.098 120.929 209.467 121.056 208.845C121.188 208.236 121.385 207.644 121.645 207.078C121.902 206.531 122.229 206.019 122.618 205.555C123.006 205.09 123.475 204.698 124 204.397C124.41 204.132 124.882 203.979 125.37 203.955C125.551 203.953 125.73 203.988 125.898 204.057C126.065 204.126 126.216 204.229 126.343 204.358C126.631 204.664 126.835 205.039 126.938 205.446C127.085 205.976 127.164 206.522 127.175 207.072C127.175 207.277 127.175 207.507 127.175 207.757C127.175 208.006 127.175 208.275 127.175 208.544C127.175 208.813 127.175 209.082 127.175 209.338C127.175 209.594 127.175 209.83 127.175 210.048C127.155 210.681 127.078 211.311 126.944 211.93C126.814 212.54 126.616 213.135 126.355 213.702C126.098 214.249 125.768 214.759 125.376 215.219C124.988 215.678 124.522 216.066 124 216.365C123.588 216.634 123.11 216.789 122.618 216.813C122.438 216.814 122.259 216.779 122.092 216.711C121.925 216.643 121.773 216.543 121.645 216.416C121.358 216.111 121.155 215.736 121.056 215.328C120.919 214.798 120.842 214.255 120.826 213.709C120.826 213.504 120.826 213.274 120.826 213.024C120.826 212.774 120.826 212.506 120.826 212.237C120.826 211.968 120.826 211.699 120.826 211.443C120.826 211.187 120.819 210.95 120.826 210.733ZM125.715 207.994C125.741 207.713 125.709 207.431 125.624 207.162C125.538 206.894 125.399 206.646 125.216 206.432C124.909 206.17 124.506 206.182 124 206.477C123.468 206.797 123.044 207.269 122.784 207.834C122.467 208.505 122.297 209.236 122.285 209.978C122.285 210.406 122.285 210.88 122.285 211.392C122.285 211.904 122.285 212.371 122.285 212.787C122.261 213.067 122.293 213.348 122.378 213.615C122.464 213.882 122.602 214.129 122.784 214.342C123.091 214.598 123.495 214.579 124 214.285C124.531 213.968 124.954 213.5 125.216 212.941C125.536 212.273 125.707 211.544 125.715 210.803C125.715 210.374 125.715 209.901 125.715 209.389C125.715 208.877 125.728 208.41 125.715 208V207.994Z" fill="#FAFAFA"/>
<path d="M131.559 200.198C131.976 199.93 132.453 199.768 132.947 199.725C133.127 199.712 133.306 199.738 133.475 199.8C133.644 199.861 133.798 199.958 133.927 200.083C134.225 200.385 134.433 200.764 134.528 201.177C134.684 201.747 134.77 202.334 134.784 202.925C134.818 203.731 134.818 204.55 134.784 205.382C134.76 206.069 134.674 206.752 134.528 207.424C134.401 208.042 134.201 208.644 133.933 209.216C133.68 209.753 133.355 210.252 132.967 210.701C132.577 211.141 132.119 211.515 131.61 211.808L128.89 213.376C128.861 213.4 128.825 213.413 128.787 213.413C128.75 213.413 128.714 213.4 128.685 213.376C128.654 213.339 128.631 213.296 128.616 213.25C128.602 213.204 128.597 213.155 128.602 213.107V202.355C128.602 202.229 128.63 202.104 128.685 201.99C128.727 201.888 128.798 201.802 128.89 201.741L131.559 200.198ZM133.325 203.769C133.318 203.46 133.273 203.153 133.191 202.854C133.135 202.628 133.02 202.42 132.858 202.253C132.783 202.182 132.696 202.128 132.6 202.091C132.505 202.055 132.403 202.038 132.301 202.041C132.016 202.062 131.74 202.154 131.501 202.31L130.055 203.142V210.624L131.559 209.76C131.848 209.59 132.107 209.374 132.327 209.12C132.539 208.863 132.72 208.582 132.864 208.281C133.009 207.966 133.119 207.635 133.191 207.296C133.268 206.942 133.313 206.582 133.325 206.221C133.359 205.389 133.359 204.572 133.325 203.769Z" fill="#FAFAFA"/>
<path d="M141.229 204.16C141.257 204.135 141.294 204.121 141.331 204.121C141.369 204.121 141.406 204.135 141.434 204.16C141.466 204.195 141.491 204.237 141.507 204.282C141.522 204.327 141.528 204.375 141.523 204.423V205.6C141.521 205.729 141.491 205.856 141.434 205.971C141.394 206.074 141.322 206.162 141.229 206.221L136.493 208.954C136.465 208.979 136.428 208.993 136.391 208.993C136.353 208.993 136.316 208.979 136.288 208.954C136.256 208.917 136.231 208.875 136.216 208.829C136.2 208.782 136.194 208.734 136.199 208.685V197.971C136.201 197.845 136.231 197.72 136.288 197.607C136.33 197.503 136.401 197.414 136.493 197.351L141.146 194.669C141.174 194.644 141.21 194.63 141.248 194.63C141.286 194.63 141.322 194.644 141.351 194.669C141.382 194.706 141.405 194.749 141.419 194.795C141.433 194.841 141.438 194.89 141.434 194.938V196.115C141.434 196.242 141.405 196.366 141.351 196.48C141.309 196.582 141.237 196.669 141.146 196.73L137.658 198.746V201.389L140.909 199.514C140.937 199.489 140.974 199.475 141.011 199.475C141.049 199.475 141.086 199.489 141.114 199.514C141.145 199.551 141.168 199.594 141.182 199.64C141.197 199.686 141.202 199.735 141.197 199.783V200.96C141.197 201.087 141.169 201.211 141.114 201.325C141.072 201.427 141.001 201.514 140.909 201.575L137.658 203.45V206.215L141.229 204.16Z" fill="#FAFAFA"/>
<path d="M122.47 302.477L97.7536 288.205C97.2702 287.891 96.868 287.466 96.5799 286.967C96.2918 286.468 96.126 285.907 96.0959 285.331V281.971C96.127 281.396 96.2932 280.836 96.5812 280.336C96.8692 279.837 97.2709 279.413 97.7536 279.098L125.587 263.04C126.102 262.778 126.671 262.642 127.248 262.642C127.825 262.642 128.394 262.778 128.909 263.04L153.6 277.299C154.083 277.614 154.484 278.039 154.772 278.538C155.06 279.037 155.227 279.597 155.258 280.173V283.52C155.228 284.096 155.062 284.656 154.774 285.156C154.486 285.655 154.083 286.079 153.6 286.394L125.766 302.464C125.256 302.724 124.692 302.86 124.12 302.862C123.547 302.865 122.982 302.733 122.47 302.477Z" fill="#37474F"/>
<path d="M125.587 263.04L97.7535 279.11C96.8383 279.635 96.8383 280.499 97.7535 281.03L122.47 295.302C122.985 295.564 123.554 295.701 124.131 295.701C124.708 295.701 125.277 295.564 125.792 295.302L153.6 279.213C154.515 278.688 154.515 277.824 153.6 277.293L128.909 263.04C128.394 262.778 127.825 262.642 127.248 262.642C126.671 262.642 126.102 262.778 125.587 263.04Z" fill="#455A64"/>
<path d="M124.16 295.68V302.868C123.583 302.878 123.012 302.742 122.502 302.471L97.7855 288.199C97.3033 287.885 96.902 287.461 96.614 286.963C96.326 286.465 96.1594 285.906 96.1279 285.332V281.965C96.1561 281.451 96.2913 280.949 96.525 280.491C96.7587 280.032 97.0856 279.627 97.4847 279.303C96.8831 279.828 96.9855 280.538 97.7855 281.005L122.502 295.277C123.01 295.553 123.582 295.692 124.16 295.68Z" fill="#263238"/>
<path d="M121.805 280.32C122.029 279.411 123.59 278.509 125.165 278.4L126.63 278.279C127.45 278.208 128.198 277.779 128.314 277.306C128.429 276.832 127.866 276.512 127.034 276.583L125.568 276.704C124.018 276.823 122.513 277.28 121.158 278.042C119.878 278.771 119.066 279.674 118.842 280.602L117.498 286.08C117.03 287.955 119.296 289.28 122.541 288.992L124.006 288.871C125.556 288.75 127.061 288.294 128.416 287.533C129.696 286.797 130.502 285.895 130.726 284.973L131.366 282.362C131.482 281.895 130.918 281.568 130.086 281.639C129.254 281.709 128.518 282.138 128.403 282.605L127.763 285.216C127.539 286.119 125.978 287.021 124.403 287.136L122.931 287.258C121.312 287.392 120.179 286.733 120.41 285.799L121.779 280.282L121.805 280.32ZM132.518 277.76L133.882 272.243C133.987 271.795 133.931 271.323 133.726 270.911C133.52 270.498 133.177 270.17 132.755 269.984C131.54 269.392 130.178 269.169 128.838 269.344L127.36 269.44C125.812 269.56 124.31 270.017 122.957 270.778C121.677 271.507 120.864 272.416 120.64 273.338L120.051 275.725C119.936 276.192 120.499 276.519 121.331 276.448C122.163 276.378 122.899 275.949 123.014 275.482L123.603 273.095C123.702 272.815 123.856 272.559 124.055 272.339C124.253 272.119 124.494 271.941 124.762 271.815C125.437 271.431 126.189 271.202 126.963 271.143L128.435 271.021C129.104 270.936 129.783 271.049 130.387 271.347C130.599 271.44 130.772 271.604 130.875 271.811C130.977 272.019 131.004 272.255 130.95 272.48L129.587 277.997C129.363 278.906 127.795 279.808 126.227 279.917C125.414 279.987 124.666 280.416 124.544 280.89C124.422 281.363 124.992 281.683 125.824 281.613C127.371 281.493 128.873 281.038 130.227 280.282C131.507 279.546 132.32 278.643 132.55 277.722L132.518 277.76Z" fill="white"/>
<path d="M146.086 256.416V253.056C146.116 252.48 146.282 251.92 146.57 251.42C146.858 250.921 147.261 250.497 147.744 250.182L190.08 225.722C190.594 225.46 191.164 225.323 191.741 225.323C192.318 225.323 192.887 225.46 193.402 225.722L218.125 240C218.609 240.314 219.013 240.737 219.302 241.237C219.591 241.736 219.758 242.297 219.789 242.874V246.234C219.758 246.81 219.591 247.371 219.302 247.87C219.013 248.37 218.609 248.794 218.125 249.107L175.782 273.568C175.268 273.83 174.699 273.966 174.122 273.966C173.544 273.966 172.975 273.83 172.461 273.568L147.744 259.296C147.261 258.98 146.858 258.555 146.57 258.055C146.282 257.554 146.116 256.993 146.086 256.416Z" fill="#E0E0E0"/>
<path d="M219.782 242.867V246.227C219.752 246.803 219.586 247.364 219.298 247.863C219.01 248.363 218.608 248.787 218.125 249.101L175.782 273.562C175.274 273.836 174.702 273.972 174.125 273.959V266.765C174.702 266.776 175.272 266.639 175.782 266.368L218.125 241.92C218.925 241.459 219.027 240.743 218.426 240.218C218.823 240.541 219.149 240.944 219.383 241.4C219.616 241.856 219.752 242.356 219.782 242.867Z" fill="#F0F0F0"/>
<path d="M155.45 263.737L149.05 264.979V272.192C149.052 272.318 149.084 272.443 149.141 272.556C149.199 272.668 149.281 272.767 149.382 272.843C149.483 272.919 149.6 272.972 149.724 272.996C149.848 273.021 149.977 273.017 150.099 272.985L164.819 269.145V261.933L155.45 263.737Z" fill="#F0F0F0"/>
<path d="M174.125 266.464C173.6 266.478 173.079 266.357 172.614 266.112L164.819 261.632L149.984 265.53H149.837C149.736 265.527 149.639 265.497 149.554 265.442C149.47 265.387 149.403 265.31 149.36 265.219C149.316 265.128 149.299 265.027 149.31 264.927C149.321 264.827 149.359 264.732 149.421 264.653L155.878 256.448L147.898 251.84C147.742 251.8 147.604 251.71 147.505 251.583C147.407 251.456 147.353 251.3 147.353 251.139C147.353 250.979 147.407 250.822 147.505 250.696C147.604 250.569 147.742 250.478 147.898 250.439L190.24 225.978C190.709 225.742 191.226 225.619 191.75 225.619C192.275 225.619 192.792 225.742 193.261 225.978L217.978 240.25C218.133 240.289 218.271 240.38 218.37 240.507C218.469 240.634 218.522 240.79 218.522 240.951C218.522 241.111 218.469 241.267 218.37 241.394C218.271 241.521 218.133 241.612 217.978 241.651L175.635 266.112C175.17 266.357 174.65 266.478 174.125 266.464Z" fill="#FAFAFA"/>
<path d="M191.75 225.92C192.224 225.911 192.692 226.019 193.114 226.234L217.83 240.506C218.067 240.646 218.221 240.813 218.221 240.947C218.221 241.082 218.067 241.254 217.83 241.395L175.488 265.85C175.064 266.06 174.598 266.169 174.125 266.169C173.652 266.169 173.185 266.06 172.762 265.85L165.082 261.414L164.87 261.293L164.634 261.357L149.914 265.197H149.843C149.798 265.196 149.754 265.182 149.717 265.157C149.68 265.132 149.65 265.097 149.632 265.056C149.612 265.016 149.604 264.971 149.61 264.926C149.615 264.882 149.634 264.84 149.664 264.806L155.904 256.87L156.333 256.333L155.738 255.987L148.058 251.552C147.814 251.411 147.667 251.238 147.667 251.104C147.667 250.97 147.814 250.803 148.058 250.662L190.4 226.202C190.821 225.985 191.29 225.877 191.763 225.888M191.763 225.293C191.184 225.28 190.61 225.416 190.099 225.69L147.757 250.15C146.842 250.675 146.842 251.533 147.757 252.07L155.437 256.506L149.197 264.442C149.1 264.564 149.04 264.711 149.022 264.866C149.005 265.02 149.031 265.177 149.097 265.318C149.164 265.459 149.268 265.578 149.399 265.663C149.529 265.748 149.681 265.795 149.837 265.798C149.911 265.808 149.986 265.808 150.061 265.798L164.781 261.958L172.461 266.394C172.973 266.664 173.545 266.801 174.125 266.79C174.702 266.801 175.272 266.665 175.782 266.394L218.125 241.92C219.046 241.389 219.046 240.531 218.125 240L193.408 225.728C192.899 225.454 192.328 225.317 191.75 225.331L191.763 225.293Z" fill="#E0E0E0"/>
<path d="M175.059 256.679C174.811 256.665 174.571 256.588 174.362 256.455L163.2 250.004C162.816 249.786 162.97 249.479 163.661 249.082L164.371 248.672C165.054 248.276 165.585 248.186 165.965 248.404L175.527 253.927L178.17 252.404C178.363 252.291 178.589 252.25 178.81 252.288C179.094 252.344 179.365 252.453 179.61 252.608L180.16 252.922C180.38 253.026 180.57 253.185 180.71 253.383C180.768 253.511 180.71 253.632 180.512 253.741L175.757 256.487C175.547 256.614 175.305 256.681 175.059 256.679Z" fill="#F6CA58"/>
<path d="M171.52 246.4L170.458 245.76C170.08 245.543 170.285 245.204 171.098 244.749C171.91 244.295 172.525 244.109 172.909 244.359L173.971 244.999C174.349 245.216 174.144 245.556 173.331 246.016C172.518 246.477 171.917 246.624 171.52 246.4ZM181.683 252.416L173.491 247.68C173.116 247.463 173.282 247.149 173.99 246.74L174.483 246.452C175.196 246.025 175.74 245.929 176.115 246.164L184.32 250.88C184.7 251.098 184.533 251.412 183.821 251.821L183.328 252.109C182.63 252.544 182.086 252.64 181.702 252.423L181.683 252.416Z" fill="#F6CA58"/>
<path d="M186.157 249.85L180.499 246.586C179.892 246.22 179.264 245.891 178.618 245.6C178.202 245.427 177.978 245.319 177.875 245.274C177.658 245.146 177.754 244.915 178.15 244.57C178.503 244.257 178.884 243.978 179.29 243.738C179.478 243.613 179.706 243.561 179.93 243.591C180.15 243.635 180.364 243.704 180.57 243.795C180.806 243.898 180.992 243.981 181.133 244.032C180.999 243.669 180.999 243.269 181.133 242.906C181.327 242.473 181.667 242.122 182.093 241.914C182.732 241.541 183.467 241.37 184.205 241.421C185.035 241.49 185.837 241.753 186.547 242.189L192.947 245.895C193.325 246.119 193.171 246.419 192.486 246.816L191.885 247.168C191.2 247.565 190.669 247.655 190.285 247.431L184.467 244.071C184.215 243.915 183.934 243.81 183.642 243.763C183.385 243.736 183.126 243.794 182.906 243.93C182.753 244 182.634 244.127 182.574 244.283C182.514 244.44 182.518 244.614 182.586 244.768L188.8 248.32C188.992 248.429 189.05 248.557 188.979 248.711C188.817 248.938 188.596 249.118 188.339 249.229L187.699 249.587C187.066 249.984 186.534 250.067 186.157 249.85Z" fill="#F6CA58"/>
<path d="M202.035 241.011C202.227 241.12 202.035 241.35 201.395 241.709L200.403 242.278C200.24 242.388 200.057 242.466 199.866 242.509C199.703 242.543 199.535 242.543 199.373 242.509L193.734 241.075L193.536 241.19L197.376 243.405C197.756 243.622 197.602 243.929 196.915 244.326L196.346 244.653C195.659 245.049 195.127 245.139 194.752 244.921L182.477 237.83C182.093 237.613 182.246 237.305 182.938 236.909L183.501 236.582C184.192 236.185 184.723 236.096 185.101 236.313L192.48 240.576L192.57 240.525L190.528 237.606C190.445 237.478 190.426 237.376 190.464 237.312C190.587 237.188 190.729 237.087 190.886 237.011L191.808 236.48C192.448 236.109 192.864 235.981 193.088 236.102C193.188 236.177 193.271 236.273 193.331 236.384L195.443 239.533L201.6 240.896C201.749 240.916 201.895 240.955 202.035 241.011Z" fill="#F6CA58"/>
<path d="M39.7892 298.88L45.3444 295.68C45.3444 295.68 48.6404 281.946 47.3604 269.581C45.5108 252.199 34.0676 245.658 29.7156 247.181C25.3636 248.704 24.1092 253.741 31.3028 264.09C35.5204 270.176 40.7364 282.88 39.7892 298.88Z" fill="#F6CA58"/>
<g opacity="0.65">
<path d="M39.7892 298.88L45.3444 295.68C45.3444 295.68 48.6404 281.946 47.3604 269.581C45.5108 252.199 34.0676 245.658 29.7156 247.181C25.3636 248.704 24.1092 253.741 31.3028 264.09C35.5204 270.176 40.7364 282.88 39.7892 298.88Z" fill="white"/>
</g>
<path d="M42.0867 292.147H42.0355C41.9349 292.127 41.8462 292.068 41.7887 291.983C41.7312 291.898 41.7095 291.794 41.7283 291.693C44.7747 275.661 39.1683 257.645 32.2371 250.151C32.1821 250.073 32.1573 249.978 32.1672 249.884C32.1771 249.789 32.2211 249.702 32.2909 249.637C32.3608 249.573 32.4517 249.536 32.5466 249.534C32.6416 249.532 32.734 249.565 32.8067 249.626C39.8467 257.261 45.5747 275.571 42.4835 291.866C42.4601 291.951 42.4077 292.026 42.3354 292.077C42.2631 292.129 42.1752 292.154 42.0867 292.147Z" fill="white"/>
<path d="M25.805 306.97C24.973 307.393 22.765 305.505 22.1506 305.05C21.0979 304.251 20.2673 303.196 19.7378 301.985C19.1491 300.609 19.0015 299.084 19.3154 297.62C19.4772 296.847 19.691 296.086 19.9554 295.342L20.7362 293.121C21.0334 292.414 21.1837 291.654 21.1778 290.887C21.0562 289.345 19.757 288.206 18.5666 287.22C17.2546 286.126 15.8978 284.705 16.0066 282.868C16.1787 281.443 16.8179 280.115 17.8242 279.092C18.7586 278.023 19.853 277.089 20.7106 275.956C21.3785 275.167 21.7557 274.173 21.7794 273.14C21.7286 272.504 21.5478 271.885 21.2482 271.322C20.6594 270.087 19.8594 268.948 19.4754 267.636C19.0914 266.324 19.2322 264.724 20.2882 263.854C21.1522 263.143 22.381 263.098 23.4882 263.214C24.5264 263.396 25.513 263.8 26.381 264.398C29.2226 266.17 30.7202 269.722 33.7538 271.124C34.9665 271.571 36.2063 271.941 37.4658 272.231C38.6946 272.628 39.9362 273.326 40.4546 274.51C41.4786 276.839 39.2258 279.54 39.9042 281.991C40.4994 284.167 42.5346 285.089 43.6034 287.073C44.0363 287.946 44.1797 288.935 44.013 289.895C43.8279 291.524 43.3464 293.105 42.5922 294.561C41.7475 296.057 40.8113 297.5 39.789 298.881C39.789 298.881 25.933 306.906 25.805 306.97Z" fill="#F6CA58"/>
<g opacity="0.3">
<path d="M25.805 306.97C24.973 307.393 22.765 305.505 22.1506 305.05C21.0979 304.251 20.2673 303.196 19.7378 301.985C19.1491 300.609 19.0015 299.084 19.3154 297.62C19.4772 296.847 19.691 296.086 19.9554 295.342L20.7362 293.121C21.0334 292.414 21.1837 291.654 21.1778 290.887C21.0562 289.345 19.757 288.206 18.5666 287.22C17.2546 286.126 15.8978 284.705 16.0066 282.868C16.1787 281.443 16.8179 280.115 17.8242 279.092C18.7586 278.023 19.853 277.089 20.7106 275.956C21.3785 275.167 21.7557 274.173 21.7794 273.14C21.7286 272.504 21.5478 271.885 21.2482 271.322C20.6594 270.087 19.8594 268.948 19.4754 267.636C19.0914 266.324 19.2322 264.724 20.2882 263.854C21.1522 263.143 22.381 263.098 23.4882 263.214C24.5264 263.396 25.513 263.8 26.381 264.398C29.2226 266.17 30.7202 269.722 33.7538 271.124C34.9665 271.571 36.2063 271.941 37.4658 272.231C38.6946 272.628 39.9362 273.326 40.4546 274.51C41.4786 276.839 39.2258 279.54 39.9042 281.991C40.4994 284.167 42.5346 285.089 43.6034 287.073C44.0363 287.946 44.1797 288.935 44.013 289.895C43.8279 291.524 43.3464 293.105 42.5922 294.561C41.7475 296.057 40.8113 297.5 39.789 298.881C39.789 298.881 25.933 306.906 25.805 306.97Z" fill="white"/>
</g>
<path d="M33.8433 302.778C33.7465 302.768 33.6572 302.721 33.594 302.648C33.5309 302.574 33.4986 302.478 33.504 302.381C34.8352 287.962 28.8321 271.661 24.1153 266.778C24.0793 266.744 24.0506 266.703 24.0308 266.658C24.0111 266.613 24.0008 266.564 24.0005 266.514C24.0002 266.465 24.01 266.416 24.0292 266.371C24.0484 266.325 24.0766 266.284 24.1122 266.25C24.1478 266.215 24.1899 266.189 24.2361 266.171C24.2824 266.154 24.3316 266.146 24.381 266.148C24.4304 266.15 24.4788 266.162 24.5233 266.183C24.5678 266.205 24.6076 266.235 24.6401 266.272C29.4528 271.251 35.5841 287.821 34.24 302.445C34.236 302.493 34.2225 302.54 34.2004 302.583C34.1782 302.625 34.1478 302.663 34.111 302.694C34.0741 302.725 34.0314 302.748 33.9855 302.763C33.9395 302.777 33.8912 302.782 33.8433 302.778Z" fill="white"/>
<path d="M32.41 284.999H32.3076C28.9327 283.881 25.445 283.138 21.9076 282.784C21.8596 282.78 21.8129 282.767 21.7701 282.745C21.7274 282.722 21.6895 282.692 21.6585 282.655C21.6276 282.618 21.6043 282.576 21.5899 282.53C21.5755 282.484 21.5704 282.435 21.5748 282.387C21.577 282.339 21.5893 282.291 21.6109 282.248C21.6325 282.204 21.6629 282.165 21.7002 282.134C21.7375 282.103 21.7808 282.08 21.8276 282.066C21.8743 282.052 21.9233 282.048 21.9716 282.055C25.5717 282.421 29.1212 283.178 32.5572 284.314C32.6469 284.348 32.7197 284.416 32.7603 284.504C32.8008 284.591 32.806 284.69 32.7748 284.781C32.7435 284.85 32.6918 284.908 32.6266 284.947C32.5613 284.986 32.4857 285.004 32.41 284.999Z" fill="white"/>
<path d="M231.322 268.513C231.379 271.674 231.629 276.276 231.322 277.588C231.014 278.9 225.741 280.148 221.619 280.365C217.498 280.583 212.538 279.917 212.243 282.81C211.949 285.703 214.522 287.674 216.416 288.57C219.616 290.055 223.219 289.735 226.374 289.268C229.53 288.801 231.206 289.146 234.541 289.959C237.875 290.772 239.75 290.273 241.171 289.556C243.283 288.5 242.72 284.897 241.978 282.548C241.235 280.199 241.338 278.068 241.594 274.797C241.85 271.527 242.797 266.791 242.797 266.791L231.322 268.513Z" fill="#FFBDA7"/>
<path d="M241.977 282.528C241.977 282.528 241.977 283.527 239.814 283.981C237.651 284.435 234.054 284.314 231.558 284.48C227.795 284.723 224.934 285.152 220.621 284.48C216.832 283.885 216.992 280.883 220.384 280.403C216.544 280.467 212.512 280.205 212.243 282.81C211.942 285.735 214.521 287.674 216.416 288.57C219.616 290.055 223.219 289.735 226.374 289.267C229.529 288.8 231.206 289.146 234.541 289.959C237.875 290.771 239.75 290.272 241.171 289.555C243.283 288.48 242.72 284.877 241.977 282.528Z" fill="#455A64"/>
<path d="M270.47 260.666C272.237 263.226 275.162 268.077 275.59 269.287C276.019 270.497 276.358 275.009 275.59 276.327C274.483 277.133 272.749 277.607 271.264 278.33C269.126 279.386 268.666 281.14 270.067 282.477C271.987 284.353 275.187 284.57 277.062 284.461C279.827 284.039 280.019 280.941 280.416 278.202C280.813 275.463 280.32 270.081 282.419 266.772C284.518 263.463 288.179 263.149 288.659 264.25C288.435 262.586 287.514 262.535 285.523 261.409C283.533 260.282 281.792 260.314 280.691 257.697C279.411 254.605 278.195 250.906 278.195 250.906L270.47 260.666Z" fill="#FFBDA7"/>
<path d="M274.362 284.531C276.346 284.864 277.741 284.857 281.267 283.129C284.307 281.638 285.107 281.011 285.542 280.179C286.278 278.899 285.485 275.641 286.125 272.851C286.596 270.89 287.27 268.983 288.134 267.161C288.819 265.472 288.774 264.742 288.659 264.249C288.422 263.193 286.272 263.059 284.224 264.249C282.176 265.44 280.851 267.705 280.179 273.101C279.507 278.496 280.544 284.397 274.362 284.531Z" fill="#263238"/>
<path d="M288.64 264.25C288.416 262.586 287.84 262.33 285.843 261.21C285.107 260.794 284.377 260.493 283.699 260.141C281.779 259.777 278.726 261.293 278.579 265.345C278.432 269.396 279.117 274.529 277.901 276.436C276.864 278.055 275.155 277.946 275.552 276.34C272.813 277.345 271.872 277.357 270.329 278.202C268.55 279.175 267.949 281.722 269.593 282.746C271.769 284.227 274.418 284.844 277.024 284.474C279.789 284.052 279.981 280.954 280.377 278.215C280.774 275.476 280.32 270.081 282.419 266.772C284.518 263.463 288.179 263.149 288.64 264.25Z" fill="#455A64"/>
<path d="M270.995 262.272C270.995 262.272 260.954 247.52 255.584 237.952C251.616 230.912 251.258 229.517 250.285 224.896C248.192 214.963 247.725 212.634 247.725 212.634L244.608 232.698C245.107 234.874 246.112 239.187 246.15 241.722C246.123 246.675 245.721 251.62 244.947 256.512C244.224 262.027 243.205 267.498 241.894 272.903C241.114 273.447 238.848 273.543 236.877 273.485C234.963 273.371 233.071 273.018 231.245 272.435C231.245 272.435 229.606 248.794 229.222 242.285C228.768 234.483 228.582 231.405 228.365 227.13C227.974 220.307 227.046 210.419 227.309 197.882C227.84 172.922 233.395 161.549 233.395 161.549L261.555 157.639C263.891 166.042 268.749 167.021 269.235 178.49C269.357 181.095 267.955 186.266 267.955 190.304C267.808 203.411 266.637 224 266.637 224C269.728 226.855 271.994 229.427 274.125 236.045C275.405 240.058 278.304 250.221 279.514 254.349C275.936 254.355 270.95 260.666 270.995 262.272Z" fill="#455A64"/>
<path d="M242.56 175.936L243.302 175.821C243.942 180.34 245.037 185.466 245.632 185.876C246.669 186.58 250.496 187.156 251.36 186.938C252.224 186.72 252.979 186.023 254.509 183.943C255.584 182.484 255.469 181.575 255.213 179.584C255.123 178.842 255.014 177.997 254.944 176.935L255.699 176.884C255.763 177.92 255.872 178.752 255.961 179.488C256.217 181.492 256.371 182.688 255.11 184.41C253.459 186.656 252.621 187.424 251.533 187.687C251.375 187.722 251.214 187.743 251.053 187.751C249.536 187.815 246.24 187.213 245.216 186.516C244.032 185.735 242.861 178.221 242.56 175.936Z" fill="#37474F"/>
<path d="M231.002 175.271L231.725 175.482C229.594 183.162 230.061 190.157 233.875 192.288C234.573 187.117 235.552 181.773 236.902 176.051L237.632 176.231C233.293 194.65 232.768 209.159 233.325 226.599C233.754 239.885 234.605 262.72 234.989 273.319L234.227 273.191C233.83 262.528 232.998 239.847 232.576 226.624C232.192 214.823 232.32 204.346 233.773 193.101C229.402 190.88 228.71 183.488 231.002 175.271Z" fill="#37474F"/>
<path d="M268.915 182.144C268.446 182.593 267.878 182.926 267.257 183.117C266.067 183.174 264.102 181.478 263.539 180.205C263.269 179.469 263.102 178.701 263.04 177.92C262.925 176.762 262.71 175.617 262.4 174.496L263.123 174.278C263.432 175.441 263.646 176.627 263.763 177.824C263.81 178.539 263.95 179.244 264.179 179.923C264.653 180.998 266.374 182.413 267.168 182.381C267.886 182.013 268.523 181.506 269.043 180.89C269.043 181.235 268.973 181.76 268.915 182.144Z" fill="#37474F"/>
<path d="M273.357 258.305C273.536 258.1 273.709 257.901 273.894 257.709C269.088 249.325 258.765 230.983 257.843 226.535C256.659 220.833 254.643 201.729 254.547 191.45H253.792C253.875 201.767 255.917 220.961 257.107 226.689C258.067 231.354 268.582 249.985 273.357 258.305Z" fill="#37474F"/>
<path d="M258.63 172.941C260.55 175.981 261.702 181.313 259.232 187.156L258.56 186.881C260.909 181.306 259.84 176.257 258.016 173.383L258.63 172.941Z" fill="#37474F"/>
<path d="M247.68 212.64L250.739 191.603C250.739 191.603 258.656 190.496 259.75 183.072C259.942 187.475 258.182 191.264 253.267 193.312L249.338 212.73L250.259 224.89L247.68 212.64Z" fill="#37474F"/>
<path d="M195.795 117.337V95.6348C195.832 95.4332 195.807 95.2251 195.724 95.0378C195.64 94.8505 195.502 94.6928 195.328 94.5852C195.148 94.4838 194.942 94.4404 194.737 94.4611C194.532 94.4817 194.338 94.5653 194.182 94.7004L184.697 100.179C184.508 100.31 184.352 100.484 184.241 100.686C184.13 100.888 184.067 101.113 184.057 101.344V123.046C184.018 123.247 184.042 123.456 184.127 123.643C184.212 123.83 184.353 123.986 184.531 124.089C184.708 124.191 184.913 124.236 185.118 124.217C185.322 124.198 185.515 124.115 185.67 123.98L195.161 118.502C195.363 118.384 195.529 118.213 195.641 118.008C195.753 117.803 195.806 117.571 195.795 117.337Z" fill="#37474F"/>
<path d="M195.2 117.555L185.446 123.187V101.389L184.224 100.685C184.106 100.878 184.04 101.098 184.032 101.325V123.027C184 123.229 184.028 123.436 184.112 123.623C184.196 123.809 184.333 123.967 184.506 124.077C184.686 124.172 184.89 124.212 185.093 124.192C185.295 124.171 185.488 124.091 185.645 123.961L195.136 118.483C195.396 118.343 195.6 118.116 195.712 117.843H195.674L195.2 117.555Z" fill="#263238"/>
<path d="M195.11 95.4365L185.6 100.928C185.463 101.019 185.35 101.14 185.267 101.282C185.185 101.424 185.137 101.583 185.126 101.747V123.264C185.126 123.724 185.453 123.904 185.856 123.68L195.117 118.336C195.271 118.233 195.4 118.096 195.492 117.935C195.585 117.774 195.638 117.593 195.648 117.408V95.7437C195.641 95.4045 195.405 95.2701 195.11 95.4365Z" fill="#455A64"/>
<path d="M195.2 96.8313V116.863C195.19 117.04 195.139 117.211 195.05 117.363C194.961 117.516 194.837 117.645 194.688 117.74L186.112 122.694C185.83 122.86 185.606 122.694 185.606 122.406V102.214C185.622 101.923 185.751 101.65 185.965 101.452L186.01 101.407L186.112 101.337L188.525 99.9481L188.685 99.8521C188.768 99.8073 188.838 99.8521 188.838 99.9481C188.838 100.044 188.915 100.083 189.011 100.031L191.821 98.4057C191.868 98.3756 191.907 98.3351 191.936 98.2874C191.965 98.2397 191.982 98.1861 191.987 98.1305C191.99 98.0791 192.004 98.029 192.029 97.9837C192.053 97.9384 192.087 97.8989 192.128 97.8681L194.49 96.5049H194.534C194.893 96.2617 195.2 96.4281 195.2 96.8313Z" fill="#263238"/>
<path d="M194.489 96.4922V116.39C194.479 116.566 194.427 116.737 194.339 116.89C194.25 117.042 194.126 117.171 193.977 117.267L185.6 122.111V102.214C185.616 101.923 185.744 101.65 185.958 101.452L186.003 101.407L186.105 101.337L188.518 99.9482L188.678 99.8522C188.761 99.8074 188.832 99.8522 188.832 99.9482C188.832 100.044 188.909 100.083 189.005 100.031L191.814 98.4058C191.861 98.3757 191.901 98.3352 191.929 98.2875C191.958 98.2398 191.976 98.1861 191.981 98.1306C191.984 98.0792 191.998 98.0291 192.022 97.9838C192.046 97.9384 192.08 97.899 192.121 97.8682L194.489 96.4922Z" fill="white"/>
<path d="M189.44 99.1998L190.72 98.4574C190.797 98.4126 190.854 98.4574 190.854 98.5278C190.852 98.5741 190.838 98.6191 190.815 98.6591C190.791 98.6992 190.759 98.7331 190.72 98.7582L189.44 99.5006C189.363 99.5454 189.305 99.5006 189.305 99.4302C189.308 99.3839 189.322 99.339 189.345 99.2989C189.368 99.2589 189.401 99.2249 189.44 99.1998Z" fill="#263238"/>
<path d="M191.36 97.9834C191.45 97.9386 191.521 97.9834 191.521 98.073C191.518 98.1283 191.502 98.1822 191.474 98.2301C191.446 98.278 191.407 98.3185 191.36 98.3482C191.277 98.3994 191.206 98.3482 191.206 98.2586C191.209 98.204 191.225 98.1509 191.251 98.1032C191.278 98.0555 191.315 98.0145 191.36 97.9834Z" fill="#263238"/>
<path d="M184.902 104.102C184.901 104.013 184.877 103.926 184.835 103.849C184.793 103.771 184.733 103.704 184.659 103.654C184.633 103.639 184.603 103.631 184.573 103.631C184.542 103.631 184.513 103.639 184.486 103.654L184.301 103.763C184.274 103.783 184.253 103.809 184.24 103.839C184.226 103.869 184.221 103.903 184.224 103.936V105.811C184.227 105.9 184.251 105.987 184.294 106.065C184.338 106.143 184.399 106.21 184.474 106.259C184.498 106.272 184.526 106.279 184.554 106.279C184.582 106.279 184.609 106.272 184.634 106.259L184.826 106.15C184.853 106.13 184.875 106.102 184.888 106.071C184.902 106.039 184.907 106.005 184.902 105.971V104.102Z" fill="#455A64"/>
<path d="M184.717 104.205V106.08C184.717 106.246 184.608 106.317 184.473 106.24C184.399 106.191 184.337 106.124 184.294 106.046C184.251 105.968 184.227 105.881 184.224 105.792V103.917C184.224 103.75 184.333 103.68 184.473 103.757C184.546 103.807 184.606 103.874 184.648 103.952C184.69 104.03 184.714 104.116 184.717 104.205Z" fill="#37474F"/>
<path d="M184.902 107.379C184.899 107.29 184.876 107.202 184.834 107.123C184.792 107.045 184.732 106.977 184.659 106.925C184.633 106.911 184.603 106.903 184.573 106.903C184.543 106.903 184.513 106.911 184.486 106.925L184.301 107.033C184.274 107.053 184.253 107.079 184.24 107.11C184.226 107.14 184.221 107.173 184.224 107.206V109.081C184.227 109.171 184.251 109.258 184.294 109.336C184.338 109.414 184.399 109.48 184.474 109.529C184.498 109.543 184.526 109.55 184.554 109.55C184.582 109.55 184.609 109.543 184.634 109.529L184.826 109.421C184.853 109.4 184.875 109.373 184.888 109.342C184.902 109.31 184.907 109.275 184.902 109.241V107.379Z" fill="#455A64"/>
<path d="M184.717 107.481V109.356C184.717 109.523 184.608 109.593 184.473 109.516C184.399 109.467 184.337 109.401 184.294 109.323C184.251 109.245 184.227 109.157 184.224 109.068V107.193C184.224 107.027 184.333 106.956 184.473 107.033C184.546 107.084 184.606 107.15 184.648 107.228C184.69 107.306 184.714 107.393 184.717 107.481Z" fill="#37474F"/>
<path d="M263.917 123.661C269.037 124.877 271.814 126.298 273.926 133.261C275.923 139.853 279.264 150.983 280.141 155.706C280.57 158.004 280.781 160.186 277.581 161.549C270.349 164.608 263.379 166.752 263.379 166.752L260.557 158.215L268.288 154.375L266.368 148.154L263.917 123.661Z" fill="#FFBDA7"/>
<path d="M268.275 154.361C268.929 155.843 270.054 157.067 271.475 157.843C269.594 158.073 267.757 156.102 267.277 154.867L268.275 154.361Z" fill="#F0997A"/>
<path d="M239.027 98.1569C238.131 96.9601 238.259 95.1681 238.899 93.8241C239.539 92.4801 240.781 91.0913 244.211 89.6129C248.294 87.8529 259.424 86.6881 263.693 94.1377C264.333 95.2513 252.691 114.95 252.921 119.136C250.361 116.038 241.984 105.184 241.984 105.184C239.891 104.115 238.643 103.264 238.329 101.171C238.238 100.118 238.482 99.0629 239.027 98.1569Z" fill="#263238"/>
<path d="M240.243 103.93C240.243 103.93 236.992 108.486 237.286 108.896C237.925 109.483 238.615 110.012 239.347 110.477L240.243 103.93Z" fill="#F0997A"/>
<path d="M244.48 95.5073C242.458 96.2945 240.64 97.6705 239.744 101.907C239.501 103.015 240.269 104.615 239.744 106.08C237.587 112.346 239.226 117.818 240.384 119.079C241.171 119.93 245.504 120.595 247.878 120.122C250.816 119.52 257.274 117.139 260.576 112.851C264.467 107.802 265.792 100.736 262.086 97.6001C256.902 93.1969 246.643 94.6689 244.48 95.5073Z" fill="#FFBDA7"/>
<path d="M258.47 116.339L258.842 122.707C262.374 124.774 255.059 127.468 247.322 124.147L246.758 118.387L258.47 116.339Z" fill="#FFBDA7"/>
<path d="M247.002 121.024C247.142 122.496 247.29 124.698 245.005 125.306C242.861 125.882 239.392 126.234 236.006 127.501C236.006 127.501 248.198 129.421 254.566 128.372C260.934 127.322 262.074 123.2 262.074 123.2C259.77 122.893 258.81 122.509 258.72 121.024H247.002Z" fill="#FFBDA7"/>
<path d="M240.64 119.27C241.619 119.91 243.84 120.486 246.931 120.275L246.79 118.682C245.82 118.987 244.824 119.201 243.814 119.322C242.759 119.461 241.69 119.444 240.64 119.27Z" fill="#F0997A"/>
<path d="M241.427 97.5936C241.126 100.365 242.81 101.37 243.987 102.003C243.437 102.993 243.177 104.117 243.238 105.248C243.418 106.675 243.878 107.872 245.229 108.448C246.054 108.794 246.336 108.448 246.682 107.808C247.181 106.886 247.827 105.466 249.85 105.888C252.173 106.381 252.544 109.952 251.008 112.166C250.71 112.635 250.303 113.025 249.821 113.303C249.34 113.58 248.798 113.737 248.243 113.76C247.939 113.734 247.645 113.643 247.379 113.494C247.113 113.345 246.882 113.141 246.701 112.896C246.701 112.896 246.637 115.987 250.47 118.093C250.47 118.093 254.31 120.653 258.496 119.712C260.494 117.797 262.387 115.776 264.166 113.658C268.941 107.718 269.926 96.4288 262.714 93.856C262.368 93.7344 256.435 92.2304 253.114 92.7104C243.021 94.1312 241.478 97.1136 241.427 97.5936Z" fill="#263238"/>
<path d="M263.68 94.1377C264.819 94.1377 268.262 95.8977 268.256 103.552C268.256 108.717 266.976 115.635 265.325 118.874C260.896 123.757 248.045 124.691 242.4 122.643C246.074 120.96 246.733 116.397 246.713 112.864C248.39 115.424 251.462 116.007 255.174 114.144C258.886 112.282 263.68 94.1377 263.68 94.1377Z" fill="#263238"/>
<path d="M268.883 129.997C267.821 124.826 265.043 123.706 263.763 123.482C261.773 123.13 260.563 122.925 260.563 122.925C260.602 123.565 261.005 124.992 255.29 125.709C251.61 126.17 245.274 125.229 245.274 125.229L239.61 125.997C237.517 127.277 232.384 132.23 229.965 137.946C228.045 142.464 228.768 147.066 232.179 150.426C232.442 153.261 231.981 158.88 231.981 158.88C230.016 169.12 228.922 173.44 228.922 173.44C228.922 173.44 231.603 177.632 248.966 177.242C262.406 176.941 268.614 170.931 268.614 170.931C268.224 168.922 266.822 164.621 264.282 157.933C264.602 151.392 271.181 141.171 268.883 129.997Z" fill="#F6CA58"/>
<path d="M210.739 133.197C210.739 133.197 197.76 125.229 196.979 124.16C196.294 123.245 196.339 122.105 196.186 121.03C195.992 119.799 195.621 118.603 195.085 117.478C194.746 116.736 194.278 116.038 193.984 115.283C193.69 114.528 193.741 113.817 193.485 113.113C193.229 112.409 192.512 112.633 192.064 113.113C191.518 113.815 191.266 114.7 191.36 115.584C191.36 115.974 191.398 116.365 191.424 116.755C191.488 117.114 191.513 117.479 191.501 117.843C191.49 118.033 191.418 118.215 191.296 118.361C191.002 118.624 190.451 118.214 190.208 118.016C188.603 116.695 187.279 115.065 186.317 113.222C185.907 112.429 185.677 111.603 185.184 110.835C184.768 110.119 184.243 109.471 183.629 108.915C183.225 108.527 182.719 108.263 182.17 108.153C181.286 108.205 181.773 109.734 181.843 110.221C181.961 110.766 181.924 111.334 181.734 111.859C181.48 112.474 181.48 113.164 181.734 113.779C181.926 114.419 182.304 115.187 182.182 115.865C182.123 116.107 182.048 116.344 181.958 116.576C181.804 117.318 181.884 118.09 182.189 118.784C182.492 119.425 182.551 120.156 182.355 120.838C182.035 122.432 183.29 124.038 184.275 125.19C185.419 126.453 186.708 127.576 188.115 128.537C188.858 129.069 189.562 129.651 190.317 130.163C191.072 130.675 191.718 131.008 192.365 131.513C193.888 132.723 199.699 138.368 206.445 143.833C208.678 145.638 209.363 146.265 213.69 145.485C221.472 144.083 223.226 143.693 227.878 142.829C234.976 141.51 235.853 141.293 235.853 141.293C240.275 139.373 240.896 134.067 241.011 131.417C241.127 129.512 240.641 127.618 239.622 126.003C235.571 126.189 232.077 127.136 225.594 129.03C217.933 131.264 210.739 133.197 210.739 133.197Z" fill="#FFBDA7"/>
<path d="M250.944 83.6678L248.486 79.047L250.464 73.3381V69.8438L244.41 73.3381V76.8326L247.014 81.3126C247.055 81.38 247.115 81.4336 247.187 81.4662L250.944 83.6678Z" fill="#F6CA58"/>
<path opacity="0.2" d="M250.944 83.6678L248.486 79.047L250.464 73.3381V69.8438L244.41 73.3381V76.8326L247.014 81.3126C247.055 81.38 247.115 81.4336 247.187 81.4662L250.944 83.6678Z" fill="black"/>
<path d="M263.942 39.2963C263.908 38.6663 263.726 38.0532 263.41 37.5071C263.094 36.9609 262.654 36.4973 262.125 36.1539L260.646 35.2963C260.084 35.0123 259.462 34.8643 258.832 34.8643C258.201 34.8643 257.58 35.0123 257.017 35.2963L236.16 47.3987C235.626 47.7433 235.182 48.2095 234.864 48.7592C234.546 49.3088 234.362 49.9261 234.329 50.5603V79.0915C234.363 79.7215 234.545 80.3347 234.861 80.8808C235.177 81.4269 235.618 81.8906 236.147 82.2339L237.625 83.0851C238.187 83.3722 238.809 83.5219 239.44 83.5219C240.071 83.5219 240.692 83.3722 241.254 83.0851L248.211 79.0531L250.809 83.5331C250.846 83.5976 250.9 83.6502 250.965 83.6845C251.031 83.7189 251.105 83.7336 251.179 83.7268C251.253 83.72 251.323 83.6921 251.381 83.6464C251.439 83.6007 251.483 83.5391 251.507 83.4691L254.253 75.5203L262.125 70.9507C262.653 70.6063 263.093 70.1423 263.408 69.5964C263.724 69.0505 263.907 68.438 263.942 67.8083V39.2963Z" fill="#F6CA58"/>
<path opacity="0.2" d="M234.33 79.0727C234.363 79.7027 234.546 80.3158 234.861 80.8619C235.177 81.4081 235.618 81.8717 236.147 82.2151L237.626 83.0663C238.136 83.3242 238.696 83.4707 239.267 83.4961C239.839 83.5215 240.409 83.4251 240.941 83.2135C240.09 83.5399 239.437 83.0535 239.437 82.0231V53.4919C239.459 52.8612 239.642 52.2466 239.968 51.7063L234.848 48.7559C234.523 49.2966 234.34 49.9109 234.317 50.5415L234.33 79.0727Z" fill="black"/>
<path opacity="0.3" d="M263.885 38.7783C263.667 38.0103 262.97 37.7607 262.131 38.2471L241.28 50.3495C240.741 50.6811 240.3 51.1491 240 51.7063L234.88 48.7623C235.184 48.2079 235.624 47.7407 236.16 47.4055L257.031 35.2967C257.594 35.0155 258.215 34.8691 258.845 34.8691C259.475 34.8691 260.096 35.0155 260.659 35.2967L262.144 36.1543C262.595 36.4525 262.982 36.8385 263.281 37.2893C263.58 37.7401 263.786 38.2465 263.885 38.7783Z" fill="white"/>
<path d="M257.178 48.1221C255.514 47.1621 253.395 47.3221 251.219 48.5765C246.4 51.3733 242.432 58.8805 242.432 65.3317C242.432 68.7877 243.578 71.4309 245.575 72.5829C246.294 73.0011 247.111 73.2218 247.943 73.2229C249.21 73.1747 250.443 72.7975 251.52 72.1285C256.365 69.3317 260.301 61.8117 260.301 55.3733C260.314 51.9173 259.2 49.2805 257.178 48.1221ZM243.098 64.7621C243.279 61.4201 244.241 58.1671 245.907 55.2645C246.297 55.4498 246.71 55.579 247.136 55.6485C246.188 58.1013 245.67 60.6995 245.607 63.3285L243.098 64.7621ZM251.706 60.5189L256.525 57.7349C256.412 60.214 255.891 62.6575 254.983 64.9669C253.838 64.9577 252.711 65.2396 251.706 65.7861V60.5189ZM251.706 59.7893V54.5605C253.015 53.7421 254.185 52.7177 255.168 51.5269C256.114 53.1993 256.587 55.0974 256.538 57.0181L251.706 59.7893ZM251.706 53.7989V49.1973C252.315 49.2759 252.902 49.4755 253.433 49.7844C253.964 50.0932 254.428 50.5051 254.797 50.9957C253.907 52.0821 252.861 53.031 251.693 53.8117L251.706 53.7989ZM251.066 54.1829C250.143 54.726 249.102 55.0337 248.032 55.0789C248.815 53.1771 249.834 51.3816 251.066 49.7349V54.1829ZM247.783 55.7125H247.949C249.039 55.6801 250.106 55.3929 251.066 54.8741V60.1605L246.24 62.9509C246.352 60.4743 246.871 58.0331 247.776 55.7253L247.783 55.7125ZM251.066 60.8837V66.1253C249.754 66.9462 248.583 67.9726 247.597 69.1653C246.648 67.494 246.175 65.5951 246.227 63.6741L251.066 60.8837ZM251.066 66.8741V71.4949C250.456 71.4171 249.867 71.2179 249.335 70.909C248.803 70.6001 248.338 70.1879 247.968 69.6965C248.856 68.6141 249.897 67.6676 251.059 66.8869L251.066 66.8741ZM251.706 66.4901C252.627 65.9499 253.666 65.6424 254.733 65.5941C253.952 67.4951 252.935 69.2905 251.706 70.9381V66.4901ZM257.165 57.3637L259.68 55.9173C259.493 59.2591 258.529 62.5111 256.864 65.4149C256.475 65.2296 256.061 65.1004 255.635 65.0309C256.574 62.5845 257.087 59.9958 257.152 57.3765L257.165 57.3637ZM259.693 55.1813L257.133 56.6469C257.137 54.6552 256.595 52.7004 255.565 50.9957C256.113 50.3015 256.615 49.5725 257.069 48.8133C258.701 49.9205 259.642 52.1989 259.68 55.1941L259.693 55.1813ZM256.551 48.4933C256.139 49.1781 255.688 49.8384 255.2 50.4709C254.486 49.5859 253.505 48.9551 252.403 48.6725C253.161 48.3256 253.983 48.1382 254.816 48.1221C255.411 48.1248 255.998 48.2557 256.538 48.5061L256.551 48.4933ZM249.914 50.2661C248.893 51.7617 248.034 53.3623 247.354 55.0405C246.952 54.9924 246.561 54.88 246.195 54.7077C247.184 53.0413 248.435 51.5457 249.901 50.2789L249.914 50.2661ZM243.085 65.4981L245.613 64.0325C245.604 66.0249 246.147 67.9809 247.181 69.6837C246.633 70.3779 246.131 71.1069 245.677 71.8661C244.045 70.7909 243.111 68.4805 243.072 65.5109L243.085 65.4981ZM246.227 72.1797C246.637 71.4971 247.085 70.8389 247.571 70.2085C248.279 71.0934 249.257 71.7227 250.355 72.0005C249.72 72.3289 249.021 72.516 248.306 72.5492C247.591 72.5823 246.878 72.4606 246.215 72.1925L246.227 72.1797ZM252.839 70.4005C253.863 68.9048 254.722 67.3017 255.399 65.6197C255.799 65.6708 256.19 65.783 256.557 65.9525C255.571 67.6302 254.315 69.1332 252.839 70.4005Z" fill="white"/>
</svg>
